<?xml version="1.0" encoding="UTF-8" standalone="no"?><!DOCTYPE svg PUBLIC "-//W3C//DTD SVG 1.1//EN" "http://www.w3.org/Graphics/SVG/1.1/DTD/svg11.dtd"><svg width="100%" height="100%" viewBox="0 0 1920 1080" version="1.1" xmlns="http://www.w3.org/2000/svg" xmlns:xlink="http://www.w3.org/1999/xlink" xml:space="preserve" xmlns:serif="http://www.serif.com/" style="fill-rule:evenodd;clip-rule:evenodd;stroke-linejoin:round;stroke-miterlimit:1.41421;"><rect id="Logo" x="0" y="0" width="1920" height="1080" style="fill:none;"/><g><path d="M269.78,1010.35c0,0 -93.507,45.933 -105.537,41.559c-35.543,-14.217 60.151,-53.589 69.446,-54.136c9.296,-0.546 50.855,-7.108 36.091,12.577Z" style="fill:#ef7835;fill-rule:nonzero;"/><path d="M230.955,948.557l-1.64,0c-1.094,-0.546 0,-0.546 1.64,0Z" style="fill:#ef7835;fill-rule:nonzero;"/><path d="M1641.21,724.36c-9.843,-11.483 -8.75,-32.262 -6.562,-45.386c8.202,5.468 17.498,10.39 30.075,18.045c25.701,15.858 111.552,22.967 97.334,42.652c-14.217,19.686 -137.252,44.84 -137.252,44.84c-21.873,-20.78 16.405,-60.151 16.405,-60.151Z" style="fill:#ef7835;fill-rule:nonzero;"/><path d="M557.083,748.399c-27.541,-1.934 -24.828,-42.084 -24.828,-42.084c-54.136,30.622 -45.387,-22.42 -45.387,-22.42c-17.498,0 -24.607,-31.169 -24.607,-31.169c-28.434,-6.015 -21.326,-32.809 -21.326,-32.809c-45.386,-20.232 -26.794,-50.854 -26.794,-50.854c-27.341,-19.686 -5.468,-50.855 -5.468,-50.855c-46.48,12.03 -16.952,-55.229 -16.952,-55.229c-4.374,-2.734 -8.202,-4.374 -12.03,-6.562c-65.618,-39.371 -42.652,-60.697 -42.652,-60.697c-69.993,-44.84 -39.371,-60.697 -39.371,-60.697c-45.933,-44.293 -20.78,-47.027 -20.78,-47.027c-60.697,-53.042 -9.296,-48.667 -9.296,-48.667c-13.123,-7.109 -26.794,-27.888 -23.513,-36.091c3.281,-8.749 24.06,10.39 38.825,12.031c14.764,1.64 9.295,-6.016 9.295,-6.016c-48.667,-44.839 -39.371,-54.682 -42.105,-69.993c-2.734,-15.311 59.604,25.701 56.323,20.233c-3.281,-5.469 -35.544,-61.245 -32.809,-77.102c3.28,-15.858 51.948,34.996 51.948,34.996c0,0 22.966,22.967 13.123,-6.015c-9.842,-28.981 -25.153,-59.603 -22.966,-83.664c1.64,-24.06 60.697,74.368 60.697,74.368c0,0 24.607,20.233 9.843,-7.655c-14.764,-28.435 -28.982,-67.259 -20.779,-83.664c8.202,-16.405 50.307,73.821 50.307,73.821c-7.108,-29.528 -20.779,-67.259 -9.296,-83.117c11.484,-15.858 48.121,102.256 50.308,118.66c2.734,16.405 76.555,120.848 84.211,132.331c7.655,11.484 85.304,75.462 85.304,75.462c28.955,36.075 109.004,85.748 129.623,98.228c3.134,1.897 4.895,2.934 4.895,2.934c14.526,-12.931 15.856,125.239 -22.288,256.452c-38.181,131.338 -117.167,269.188 -104.028,279.981c-18.592,1.094 -54.135,12.577 -72.18,26.794c-45.933,-16.404 -62.885,8.749 -96.788,18.045c-43.746,11.484 -73.274,5.469 -83.664,12.03c-10.936,7.109 -25.7,-6.015 -38.277,-2.734c-18.045,3.828 -27.341,2.734 -38.825,2.734c-59.603,0.547 -66.712,-10.389 -66.712,-10.389c-37.727,-8.748 -26.797,-28.431 -22.42,-28.435c4.375,0 43.746,-16.405 47.574,-20.779c3.281,-3.828 -24.607,-12.577 -32.263,-14.218c8.203,0 38.278,-4.921 45.387,-6.561c8.202,-2.188 -12.577,-17.499 -12.577,-17.499c7.108,1.094 42.105,-4.374 45.386,-5.468c3.281,-1.094 -13.671,-16.951 -13.671,-16.951c0,0 43.199,3.827 46.48,1.64c3.281,-2.187 0,-8.202 0,-8.202c4.922,2.187 54.683,4.374 54.683,4.374c4.374,-4.921 60.697,-47.573 83.117,-47.573c22.419,0 102.802,-50.855 102.802,-50.855c-39.371,2.734 -26.247,-9.843 -26.247,-9.843c0,0 43.746,-49.76 8.202,-43.745c-2.734,0.546 -7.434,0.525 -7.434,0.525Z" style="fill:url(#_Linear1);"/><path d="M1166.57,528.598c-54.123,65.323 -76.056,144.179 -57.287,156.93c65.746,44.665 270.504,-7.218 267.738,-11.233c44.058,-15.767 92.746,-14.885 95.222,-14.46c94.107,-51.591 143.345,-4.473 146.668,6.776c0,0 8.418,8.302 15.739,12.363c-2.906,5.975 0.763,43.707 6.562,45.386c-12.178,11.41 -30.004,49.632 -16.405,60.151c-159.392,50.655 -209.721,41.858 -273.948,39.38c-85.725,17.323 -171.185,51.7 -256.47,97.325c-47.044,2.702 -92.858,5.142 -127.328,14.896c14.626,22.8 -374.517,123.445 -333.525,0c-4.948,-35.686 58.288,-117.581 88.226,-206.557c38.265,-113.721 46.174,-234.313 46.174,-234.313l-7.109,-66.166c-8.211,-15.213 26.74,-17.592 41.559,-13.124c-18.969,-36.779 -3.066,-52.355 48.12,-46.48c-8.672,-16.342 -18.675,-48.933 20.233,-47.026c-7.725,-35.15 8.789,-44.213 59.056,-16.952c-33.109,-84.898 33.396,-56.265 50.016,-30.361c-27.003,-102.839 -9.06,-134.193 47.866,-101.97c-5.265,-48.033 7.343,-67.425 54.682,-31.169c0.644,-32.031 14.745,-40.678 50.308,-12.03c15.135,-25.947 25.514,-19.705 33.903,0l13.123,282.707c12.245,20.6 25.51,97.862 -13.123,115.927Z" style="fill:url(#_Linear2);fill-rule:nonzero;"/><path d="M824.805,983.007c162.953,-32.809 100.068,-46.48 187.013,-55.229c36.637,-3.828 64.525,-6.562 82.57,-6.562c-117.567,68.9 -232.946,118.114 -348.326,115.38c-61.791,-1.094 -128.503,-29.529 -180.451,-48.667c18.045,-14.218 49.214,-24.061 67.806,-25.701c-0.547,1.094 28.434,53.589 191.388,20.779Z" style="fill:#fdfdfd;fill-rule:nonzero;"/><path d="M632.87,963.322c0,0 -94.054,30.075 -125.769,67.259c-3.281,3.828 -8.749,6.562 -13.671,6.562c-28.435,1.093 -128.503,3.827 -188.654,37.184c-9.296,5.468 -20.232,7.108 -30.622,4.374c-16.951,-3.828 -32.262,-14.217 9.296,-39.918c42.106,-25.701 148.736,-37.184 179.358,-39.918c5.468,-0.547 10.937,-2.187 15.311,-4.921c22.967,-13.671 93.507,-55.229 125.769,-58.51c36.637,-3.281 28.982,27.888 28.982,27.888Z" style="fill:#ef7835;fill-rule:nonzero;"/><path d="M1578.36,675.031c-7.531,2.203 -12.27,8.695 -10.575,14.489c1.695,5.793 9.186,8.708 16.717,6.504c7.531,-2.203 12.27,-8.695 10.575,-14.489c-1.695,-5.793 -9.185,-8.708 -16.717,-6.504Z"/></g><defs><linearGradient id="_Linear1" x1="0" y1="0" x2="1" y2="0" gradientUnits="userSpaceOnUse" gradientTransform="matrix(559.492,0,0,1024.52,210.751,512.261)"><stop offset="0" style="stop-color:#f07d3c;stop-opacity:1"/><stop offset="1" style="stop-color:#fff;stop-opacity:1"/></linearGradient><linearGradient id="_Linear2" x1="0" y1="0" x2="1" y2="0" gradientUnits="userSpaceOnUse" gradientTransform="matrix(-1010.7,0,0,883.831,1641.21,554.488)"><stop offset="0" style="stop-color:#fff;stop-opacity:1"/><stop offset="1" style="stop-color:#ef7835;stop-opacity:1"/></linearGradient></defs></svg>