<?xml version="1.0" standalone="no"?>
<!DOCTYPE svg PUBLIC "-//W3C//DTD SVG 20010904//EN"
 "http://www.w3.org/TR/2001/REC-SVG-20010904/DTD/svg10.dtd">
<svg version="1.0" xmlns="http://www.w3.org/2000/svg"
 width="1920.000000pt" height="1920.000000pt" viewBox="0 0 1920.000000 1920.000000"
 preserveAspectRatio="xMidYMid meet">
<metadata>
Created by potrace 1.11, written by Peter Selinger 2001-2013
</metadata>
<g transform="translate(0.000000,1920.000000) scale(0.100000,-0.100000)"
fill="#000000" stroke="none">
<path d="M4049 14953 c-49 -101 -31 -275 66 -633 38 -142 37 -149 -11 -55
-128 254 -252 473 -305 541 -44 54 -99 104 -116 104 -52 0 -65 -182 -24 -340
21 -78 52 -173 72 -217 10 -24 19 -48 19 -54 0 -6 6 -23 14 -37 21 -40 115
-241 133 -284 30 -74 1 -86 -80 -35 -41 27 -64 53 -107 122 -30 49 -57 94 -59
100 -2 5 -7 12 -10 15 -7 5 -63 88 -71 105 -29 59 -232 334 -299 407 -88 96
-115 90 -113 -25 2 -124 34 -250 127 -502 85 -229 126 -359 123 -389 -3 -27
-6 -31 -31 -29 -34 2 -52 16 -207 163 -69 65 -135 127 -147 137 -124 106 -192
149 -250 159 -15 3 -33 -18 -38 -45 -14 -73 135 -422 302 -709 29 -49 27 -57
-7 -38 -14 7 -95 49 -181 94 -216 114 -325 152 -344 122 -3 -5 -1 -56 5 -112
17 -171 75 -269 290 -490 122 -125 147 -162 118 -173 -62 -23 -134 -5 -288 71
-62 31 -127 58 -146 61 -31 5 -33 3 -42 -28 -19 -76 84 -250 195 -325 27 -18
31 -24 17 -25 -124 -5 -189 -48 -178 -117 12 -75 69 -155 202 -286 l80 -80
-30 -28 c-27 -25 -30 -34 -25 -67 6 -44 32 -105 61 -142 12 -14 30 -38 41 -53
11 -15 43 -51 70 -80 28 -28 61 -64 74 -79 l25 -27 -26 -28 c-51 -53 -46 -136
13 -225 62 -94 211 -227 361 -322 l45 -28 -19 -45 c-49 -109 19 -235 217 -407
43 -37 208 -146 286 -189 l66 -36 -33 -94 c-18 -51 -35 -108 -38 -127 -3 -19
-9 -55 -14 -80 -20 -105 10 -214 67 -243 36 -19 90 -25 141 -16 22 4 40 6 40
4 0 -1 -13 -31 -30 -67 -72 -155 -57 -287 44 -395 l46 -49 -16 -39 c-9 -22
-17 -68 -17 -104 -2 -130 79 -240 243 -329 l54 -30 2 -73 c3 -123 53 -197 161
-237 54 -20 62 -26 67 -55 9 -49 70 -167 108 -208 28 -31 86 -69 103 -68 3 0
8 0 13 0 4 0 8 -33 8 -72 1 -40 7 -93 14 -118 15 -56 76 -119 116 -122 16 0
43 -2 59 -3 43 -2 115 19 192 54 36 17 68 29 70 27 3 -2 7 -37 10 -77 9 -131
57 -242 125 -291 34 -24 113 -46 148 -42 120 16 166 7 177 -34 9 -36 6 -53
-21 -115 -27 -60 -95 -163 -162 -246 -26 -33 -49 -66 -50 -74 -6 -41 71 -66
191 -63 41 1 75 -1 75 -4 0 -7 -238 -149 -455 -271 -215 -120 -461 -223 -555
-232 -71 -7 -134 -28 -245 -82 -147 -73 -402 -239 -534 -349 l-55 -45 -85 5
c-268 14 -414 26 -437 35 -21 7 -22 5 -17 -31 9 -64 21 -63 -429 -35 l-37 2
65 -71 c58 -64 76 -100 49 -101 -17 -1 -137 -20 -185 -30 -30 -6 -186 -19
-212 -18 -38 2 -35 -9 10 -43 68 -53 105 -105 85 -125 -5 -5 -33 -13 -63 -19
-30 -5 -68 -12 -85 -15 -16 -3 -46 -8 -65 -11 -19 -3 -46 -7 -60 -10 -14 -2
-61 -7 -104 -11 l-79 -6 99 -33 c121 -41 214 -84 214 -100 0 -6 -6 -16 -12
-22 -41 -33 -336 -162 -435 -191 -78 -22 -97 -95 -44 -169 l30 -40 -27 -7
c-15 -3 -103 -44 -197 -91 -231 -114 -356 -210 -380 -291 -9 -33 43 -83 92
-90 53 -7 272 63 454 145 24 11 71 31 104 45 33 14 118 52 189 85 113 52 133
58 165 51 98 -21 246 -31 483 -32 92 -1 166 -2 165 -4 -1 -1 -52 -19 -112 -41
-146 -52 -213 -84 -315 -151 -115 -75 -206 -166 -215 -215 -5 -22 -3 -48 3
-61 26 -56 184 -111 291 -101 77 8 98 15 241 83 128 61 222 99 320 128 30 9
73 23 95 30 46 16 291 72 350 80 22 3 63 10 90 15 28 5 68 12 90 15 23 3 50 7
61 9 12 3 57 7 100 11 43 4 82 9 85 11 3 1 41 6 85 9 43 4 99 8 124 10 42 4
152 10 344 20 141 7 151 11 230 84 39 37 85 79 101 94 58 53 209 150 352 227
l145 78 66 -23 c37 -13 157 -57 267 -98 216 -80 497 -177 591 -203 121 -33
360 -92 399 -98 45 -7 76 -13 155 -26 100 -17 223 -24 395 -24 159 1 355 9
400 18 11 2 52 7 90 10 78 8 82 9 245 37 231 40 523 115 790 202 79 26 384
140 435 162 17 8 75 32 129 55 54 23 106 45 115 50 9 4 27 12 41 18 39 16 588
288 655 325 63 35 93 51 325 183 120 68 723 376 826 422 34 15 145 64 224 99
30 13 64 28 75 33 11 5 72 30 135 56 63 25 129 52 145 59 204 88 747 260 1055
334 250 60 260 62 423 54 205 -9 637 -10 771 -1 99 7 232 21 311 34 17 2 44 6
60 8 49 7 267 47 305 56 19 5 49 12 65 15 66 11 88 16 187 40 221 53 491 128
763 212 76 24 285 76 350 88 193 36 749 195 907 260 309 127 330 219 72 311
-52 19 -181 57 -287 85 -226 59 -377 103 -432 127 -41 17 -241 130 -327 184
-26 17 -53 26 -59 22 -7 -4 -9 -3 -5 4 4 6 -14 24 -42 42 -26 18 -65 52 -87
76 -174 196 -260 250 -480 301 -97 23 -322 22 -435 -1 -179 -37 -324 -87 -488
-170 -75 -38 -97 -44 -148 -44 -65 1 -272 -11 -303 -17 -11 -2 -44 -6 -73 -9
-29 -4 -62 -8 -73 -10 -11 -2 -40 -7 -65 -11 -125 -20 -320 -74 -414 -114 -63
-28 -443 -121 -631 -155 -90 -17 -330 -56 -370 -61 -27 -3 -65 -8 -82 -11 -71
-9 -101 -13 -163 -19 -36 -3 -83 -8 -105 -10 -84 -9 -315 -19 -415 -19 -192 0
-377 15 -505 40 -11 2 -32 6 -47 9 -15 3 -40 10 -55 16 -15 6 -30 10 -33 10
-18 -3 -136 45 -189 76 -96 56 -112 91 -107 242 3 124 4 129 41 266 86 317
281 689 531 1013 31 40 72 83 93 96 145 92 224 290 222 556 -2 184 -40 387
-97 524 -28 67 -29 76 -39 311 -3 88 -8 189 -10 225 -4 63 -13 263 -20 425 -3
89 -14 317 -30 635 -2 52 -7 154 -10 225 -3 72 -8 168 -10 215 -5 106 -15 319
-20 425 -19 462 -15 418 -47 481 -32 64 -89 114 -131 114 -41 0 -102 -50 -148
-120 l-32 -50 -46 35 c-203 153 -344 178 -406 71 -28 -49 -43 -104 -46 -168
-2 -27 -6 -48 -9 -48 -4 0 -44 25 -91 55 -236 156 -367 161 -429 19 -31 -70
-41 -223 -26 -356 3 -21 3 -38 2 -38 -2 0 -23 11 -47 24 -69 39 -202 84 -266
91 -221 25 -319 -166 -278 -545 4 -41 9 -84 10 -95 2 -21 8 -56 27 -160 6 -33
23 -115 39 -182 34 -143 35 -156 12 -123 -87 126 -332 253 -442 229 -82 -17
-115 -70 -118 -186 -2 -87 12 -161 53 -286 14 -43 24 -80 23 -81 -2 -2 -49 18
-104 44 -220 105 -340 126 -428 77 -51 -29 -72 -97 -63 -205 4 -41 9 -79 12
-84 3 -4 2 -8 -3 -9 -4 -1 -30 -3 -58 -5 -115 -10 -164 -39 -200 -115 -32 -70
-21 -166 35 -301 23 -55 24 -59 8 -53 -7 3 -66 7 -131 9 -300 10 -433 -78
-404 -268 7 -51 22 -96 63 -192 4 -8 -7 -9 -38 -3 -60 11 -247 4 -283 -11 -65
-27 -77 -35 -90 -60 -8 -16 -10 -33 -4 -48 l9 -24 -38 23 c-313 188 -697 451
-932 638 -128 101 -156 127 -290 261 -63 63 -155 149 -205 190 -49 41 -92 77
-95 80 -3 3 -30 25 -60 50 -30 25 -57 47 -60 50 -3 3 -54 48 -115 100 -60 52
-115 99 -121 105 -6 5 -37 33 -69 60 -65 57 -143 133 -195 191 -36 41 -40 47
-180 254 -47 69 -87 127 -91 130 -15 14 -405 610 -462 706 -100 170 -113 200
-151 345 -19 74 -47 172 -61 219 -15 47 -29 94 -32 105 -12 44 -97 285 -129
364 -19 47 -34 88 -34 92 0 4 -27 64 -60 133 -60 123 -113 196 -143 196 -8 0
-25 -21 -38 -47z"/>
</g>
</svg>
