<?xml version="1.0" encoding="UTF-8" standalone="no"?>
<!DOCTYPE svg PUBLIC "-//W3C//DTD SVG 1.1//EN"
 "http://www.w3.org/Graphics/SVG/1.1/DTD/svg11.dtd">
<!-- Generated by graphviz version 2.40.1 (20161225.0304)
 -->
<!-- Title: %3 Pages: 1 -->
<svg width="346pt" height="348pt"
 viewBox="0.00 0.00 346.00 348.00" xmlns="http://www.w3.org/2000/svg" xmlns:xlink="http://www.w3.org/1999/xlink">
<g id="graph0" class="graph" transform="scale(1 1) rotate(0) translate(36 312)">
<title>%3</title>
<polygon fill="#ffffff" stroke="transparent" points="-36,36 -36,-312 310,-312 310,36 -36,36"/>
<!-- Foo -->
<g id="node1" class="node">
<title>Foo</title>
<polygon fill="none" stroke="#000000" points="0,-256 0,-276 60,-276 60,-256 0,-256"/>
<text text-anchor="start" x="2.5811" y="-262.8" font-family="Times,serif" font-style="italic" font-size="14.00" fill="#000000">Input Foo</text>
<polygon fill="none" stroke="#000000" points="0,-236 0,-256 60,-256 60,-236 0,-236"/>
<text text-anchor="start" x="19.8931" y="-241.8" font-family="Times,serif" font-size="14.00" fill="#000000">one</text>
<polygon fill="none" stroke="#000000" points="0,-216 0,-236 60,-236 60,-216 0,-216"/>
<text text-anchor="start" x="19.5" y="-221.8" font-family="Times,serif" font-size="14.00" fill="#000000">two</text>
<polygon fill="none" stroke="#000000" points="0,-196 0,-216 60,-216 60,-196 0,-196"/>
<text text-anchor="start" x="16.0103" y="-201.8" font-family="Times,serif" font-size="14.00" fill="#000000">three</text>
<polygon fill="none" stroke="#000000" points="0,-176 0,-196 60,-196 60,-176 0,-176"/>
<text text-anchor="start" x="18.3379" y="-181.8" font-family="Times,serif" font-size="14.00" fill="#000000">four</text>
<polygon fill="none" stroke="#000000" points="0,-156 0,-176 60,-176 60,-156 0,-156"/>
<text text-anchor="start" x="19.5" y="-161.8" font-family="Times,serif" font-size="14.00" fill="#000000">five</text>
<polygon fill="none" stroke="#000000" points="0,-136 0,-156 60,-156 60,-136 0,-136"/>
<text text-anchor="start" x="21.8311" y="-141.8" font-family="Times,serif" font-size="14.00" fill="#000000">six</text>
</g>
<!-- Baz -->
<g id="node3" class="node">
<title>Baz</title>
<polygon fill="none" stroke="#000000" points="204,-176 204,-196 274,-196 274,-176 204,-176"/>
<text text-anchor="start" x="206.9224" y="-182.8" font-family="Times,serif" font-style="italic" font-size="14.00" fill="#000000">Output Baz</text>
<polygon fill="none" stroke="#000000" points="204,-156 204,-176 274,-176 274,-156 204,-156"/>
<text text-anchor="start" x="223.8413" y="-161.8" font-family="Times,serif" font-size="14.00" fill="#000000">alpha</text>
<polygon fill="none" stroke="#000000" points="204,-136 204,-156 274,-156 274,-136 204,-136"/>
<text text-anchor="start" x="223.062" y="-141.8" font-family="Times,serif" font-size="14.00" fill="#000000">bravo</text>
<polygon fill="none" stroke="#000000" points="204,-116 204,-136 274,-136 274,-116 204,-116"/>
<text text-anchor="start" x="219.9585" y="-121.8" font-family="Times,serif" font-size="14.00" fill="#000000">charlie</text>
<polygon fill="none" stroke="#000000" points="204,-96 204,-116 274,-116 274,-96 204,-96"/>
<text text-anchor="start" x="225.3965" y="-101.8" font-family="Times,serif" font-size="14.00" fill="#000000">delta</text>
<polygon fill="none" stroke="#000000" points="204,-76 204,-96 274,-96 274,-76 204,-76"/>
<text text-anchor="start" x="225.7861" y="-81.8" font-family="Times,serif" font-size="14.00" fill="#000000">echo</text>
<polygon fill="none" stroke="#000000" points="204,-56 204,-76 274,-76 274,-56 204,-56"/>
<text text-anchor="start" x="219.9482" y="-61.8" font-family="Times,serif" font-size="14.00" fill="#000000">foxtrot</text>
</g>
<!-- Foo&#45;&gt;Baz -->
<g id="edge1" class="edge">
<title>Foo:2&#45;&gt;Baz:a</title>
<path fill="none" stroke="#000000" d="M60,-226C125.8125,-226 133.96,-171.939 193.9159,-166.4485"/>
<polygon fill="#000000" stroke="#000000" points="194.1654,-169.9409 204,-166 193.8543,-162.9478 194.1654,-169.9409"/>
</g>
<!-- Foo&#45;&gt;Baz -->
<g id="edge2" class="edge">
<title>Foo:3&#45;&gt;Baz:e</title>
<path fill="none" stroke="#000000" d="M60,-206C139.7296,-206 122.4389,-96.0909 193.8308,-86.6456"/>
<polygon fill="#000000" stroke="#000000" points="194.2419,-90.1267 204,-86 193.7983,-83.1407 194.2419,-90.1267"/>
</g>
<!-- Foo&#45;&gt;Baz -->
<g id="edge3" class="edge">
<title>Foo:6&#45;&gt;Baz:b</title>
<path fill="none" stroke="#000000" d="M60,-146C120.5,-146 138.1064,-146 193.915,-146"/>
<polygon fill="#000000" stroke="#000000" points="194,-149.5001 204,-146 194,-142.5001 194,-149.5001"/>
</g>
<!-- Bar -->
<g id="node2" class="node">
<title>Bar</title>
<polygon fill="none" stroke="#000000" points="1,-80 1,-100 60,-100 60,-80 1,-80"/>
<text text-anchor="start" x="3.8672" y="-86.8" font-family="Times,serif" font-style="italic" font-size="14.00" fill="#000000">Input Bar</text>
<polygon fill="none" stroke="#000000" points="1,-60 1,-80 60,-80 60,-60 1,-60"/>
<text text-anchor="start" x="14.562" y="-65.8" font-family="Times,serif" font-size="14.00" fill="#000000">seven</text>
<polygon fill="none" stroke="#000000" points="1,-40 1,-60 60,-60 60,-40 1,-40"/>
<text text-anchor="start" x="16.5034" y="-45.8" font-family="Times,serif" font-size="14.00" fill="#000000">eight</text>
<polygon fill="none" stroke="#000000" points="1,-20 1,-40 60,-40 60,-20 1,-20"/>
<text text-anchor="start" x="18.4482" y="-25.8" font-family="Times,serif" font-size="14.00" fill="#000000">nine</text>
<polygon fill="none" stroke="#000000" points="1,0 1,-20 60,-20 60,0 1,0"/>
<text text-anchor="start" x="21.9482" y="-5.8" font-family="Times,serif" font-size="14.00" fill="#000000">ten</text>
</g>
<!-- Bar&#45;&gt;Baz -->
<g id="edge4" class="edge">
<title>Bar:7&#45;&gt;Baz:d</title>
<path fill="none" stroke="#000000" d="M60,-70C122.4908,-70 136.6084,-102.3032 193.9973,-105.7102"/>
<polygon fill="#000000" stroke="#000000" points="193.9028,-109.2089 204,-106 194.1056,-102.2118 193.9028,-109.2089"/>
</g>
<!-- Bar&#45;&gt;Baz -->
<g id="edge5" class="edge">
<title>Bar:9&#45;&gt;Baz:f</title>
<path fill="none" stroke="#000000" d="M60,-30C122.4908,-30 136.6084,-62.3032 193.9973,-65.7102"/>
<polygon fill="#000000" stroke="#000000" points="193.9028,-69.2089 204,-66 194.1056,-62.2118 193.9028,-69.2089"/>
</g>
</g>
</svg>
