<?xml version="1.0" encoding="UTF-8" standalone="no"?><svg xmlns="http://www.w3.org/2000/svg" xmlns:xlink="http://www.w3.org/1999/xlink" contentScriptType="application/ecmascript" contentStyleType="text/css" height="641px" preserveAspectRatio="none" style="width:334px;height:641px;" version="1.1" viewBox="0 0 334 641" width="334px" zoomAndPan="magnify"><defs><filter height="300%" id="fp0f30u1minzw" width="300%" x="-1" y="-1"><feGaussianBlur result="blurOut" stdDeviation="2.0"/><feColorMatrix in="blurOut" result="blurOut2" type="matrix" values="0 0 0 0 0 0 0 0 0 0 0 0 0 0 0 0 0 0 .4 0"/><feOffset dx="4.0" dy="4.0" in="blurOut2" result="blurOut3"/><feBlend in="SourceGraphic" in2="blurOut3" mode="normal"/></filter></defs><g><!--class User--><rect fill="#FEFECE" filter="url(#fp0f30u1minzw)" height="138.6855" id="User" style="stroke: #A80036; stroke-width: 1.5;" width="117" x="9.5" y="8"/><ellipse cx="51.05" cy="24" fill="#ADD1B2" rx="11" ry="11" style="stroke: #A80036; stroke-width: 1.0;"/><path d="M54.0231,29.6431 Q53.4421,29.9419 52.8029,30.0913 Q52.1638,30.2407 51.4582,30.2407 Q48.9514,30.2407 47.6315,28.5889 Q46.3117,26.937 46.3117,23.8159 Q46.3117,20.6865 47.6315,19.0347 Q48.9514,17.3828 51.4582,17.3828 Q52.1638,17.3828 52.8112,17.5322 Q53.4587,17.6816 54.0231,17.9805 L54.0231,20.7031 Q53.3923,20.1221 52.7988,19.8523 Q52.2053,19.5825 51.5744,19.5825 Q50.2297,19.5825 49.5449,20.6492 Q48.8601,21.7158 48.8601,23.8159 Q48.8601,25.9077 49.5449,26.9744 Q50.2297,28.041 51.5744,28.041 Q52.2053,28.041 52.7988,27.7712 Q53.3923,27.5015 54.0231,26.9204 Z "/><text fill="#000000" font-family="sans-serif" font-size="12" lengthAdjust="spacingAndGlyphs" textLength="26" x="70.95" y="28.5352">User</text><line style="stroke: #A80036; stroke-width: 1.5;" x1="10.5" x2="125.5" y1="40" y2="40"/><text fill="#000000" font-family="sans-serif" font-size="11" lengthAdjust="spacingAndGlyphs" textLength="62" x="15.5" y="54.6348">id: ObjectID</text><text fill="#000000" font-family="sans-serif" font-size="11" lengthAdjust="spacingAndGlyphs" textLength="91" x="15.5" y="67.5898">username: string</text><text fill="#000000" font-family="sans-serif" font-size="11" lengthAdjust="spacingAndGlyphs" textLength="105" x="15.5" y="80.5449">displayname: string</text><text fill="#000000" font-family="sans-serif" font-size="11" lengthAdjust="spacingAndGlyphs" textLength="66" x="15.5" y="93.5">email: string</text><text fill="#000000" font-family="sans-serif" font-size="11" lengthAdjust="spacingAndGlyphs" textLength="90" x="15.5" y="106.4551">password: string</text><text fill="#000000" font-family="sans-serif" font-size="11" lengthAdjust="spacingAndGlyphs" textLength="56" x="15.5" y="119.4102">role: Roles</text><text fill="#000000" font-family="sans-serif" font-size="11" lengthAdjust="spacingAndGlyphs" textLength="104" x="15.5" y="132.3652">children: ObjectID[]</text><line style="stroke: #A80036; stroke-width: 1.5;" x1="10.5" x2="125.5" y1="138.6855" y2="138.6855"/><!--class Entry--><rect fill="#FEFECE" filter="url(#fp0f30u1minzw)" height="190.5059" id="Entry" style="stroke: #A80036; stroke-width: 1.5;" width="124" x="6" y="224"/><ellipse cx="49.35" cy="240" fill="#ADD1B2" rx="11" ry="11" style="stroke: #A80036; stroke-width: 1.0;"/><path d="M52.3231,245.6431 Q51.7421,245.9419 51.1029,246.0913 Q50.4638,246.2407 49.7582,246.2407 Q47.2514,246.2407 45.9315,244.5889 Q44.6117,242.937 44.6117,239.8159 Q44.6117,236.6865 45.9315,235.0347 Q47.2514,233.3828 49.7582,233.3828 Q50.4638,233.3828 51.1112,233.5322 Q51.7587,233.6816 52.3231,233.9805 L52.3231,236.7031 Q51.6923,236.1221 51.0988,235.8523 Q50.5053,235.5825 49.8744,235.5825 Q48.5297,235.5825 47.8449,236.6492 Q47.1601,237.7158 47.1601,239.8159 Q47.1601,241.9077 47.8449,242.9744 Q48.5297,244.041 49.8744,244.041 Q50.5053,244.041 51.0988,243.7712 Q51.6923,243.5015 52.3231,242.9204 Z "/><text fill="#000000" font-family="sans-serif" font-size="12" lengthAdjust="spacingAndGlyphs" textLength="29" x="69.65" y="244.5352">Entry</text><line style="stroke: #A80036; stroke-width: 1.5;" x1="7" x2="129" y1="256" y2="256"/><text fill="#000000" font-family="sans-serif" font-size="11" lengthAdjust="spacingAndGlyphs" textLength="62" x="12" y="270.6348">id: ObjectID</text><text fill="#000000" font-family="sans-serif" font-size="11" lengthAdjust="spacingAndGlyphs" textLength="53" x="12" y="283.5898">date: Date</text><text fill="#000000" font-family="sans-serif" font-size="11" lengthAdjust="spacingAndGlyphs" textLength="73" x="12" y="296.5449">dateEnd: Date</text><text fill="#000000" font-family="sans-serif" font-size="11" lengthAdjust="spacingAndGlyphs" textLength="93" x="12" y="309.5">student: ObjectID</text><text fill="#000000" font-family="sans-serif" font-size="11" lengthAdjust="spacingAndGlyphs" textLength="86" x="12" y="322.4551">slots: ObjectID[]</text><text fill="#000000" font-family="sans-serif" font-size="11" lengthAdjust="spacingAndGlyphs" textLength="82" x="12" y="335.4102">forSchool: bool</text><text fill="#000000" font-family="sans-serif" font-size="11" lengthAdjust="spacingAndGlyphs" textLength="75" x="12" y="348.3652">reason: string</text><text fill="#000000" font-family="sans-serif" font-size="11" lengthAdjust="spacingAndGlyphs" textLength="112" x="12" y="361.3203">signedManager: bool</text><text fill="#000000" font-family="sans-serif" font-size="11" lengthAdjust="spacingAndGlyphs" textLength="100" x="12" y="374.2754">sigendParent: bool</text><line style="stroke: #A80036; stroke-width: 1.5;" x1="7" x2="129" y1="380.5957" y2="380.5957"/><text fill="#000000" font-family="sans-serif" font-size="11" lengthAdjust="spacingAndGlyphs" textLength="77" x="12" y="395.2305">signManager()</text><text fill="#000000" font-family="sans-serif" font-size="11" lengthAdjust="spacingAndGlyphs" textLength="65" x="12" y="408.1855">signParent()</text><!--class Slot--><rect fill="#FEFECE" filter="url(#fp0f30u1minzw)" height="138.6855" id="Slot" style="stroke: #A80036; stroke-width: 1.5;" width="118" x="9" y="492"/><ellipse cx="53.75" cy="508" fill="#ADD1B2" rx="11" ry="11" style="stroke: #A80036; stroke-width: 1.0;"/><path d="M56.7231,513.6431 Q56.1421,513.9419 55.5029,514.0913 Q54.8638,514.2407 54.1582,514.2407 Q51.6514,514.2407 50.3315,512.5889 Q49.0117,510.937 49.0117,507.8159 Q49.0117,504.6865 50.3315,503.0347 Q51.6514,501.3828 54.1582,501.3828 Q54.8638,501.3828 55.5112,501.5322 Q56.1587,501.6816 56.7231,501.9805 L56.7231,504.7031 Q56.0923,504.1221 55.4988,503.8523 Q54.9053,503.5825 54.2744,503.5825 Q52.9297,503.5825 52.2449,504.6492 Q51.5601,505.7158 51.5601,507.8159 Q51.5601,509.9077 52.2449,510.9744 Q52.9297,512.041 54.2744,512.041 Q54.9053,512.041 55.4988,511.7712 Q56.0923,511.5015 56.7231,510.9204 Z "/><text fill="#000000" font-family="sans-serif" font-size="12" lengthAdjust="spacingAndGlyphs" textLength="20" x="74.25" y="512.5352">Slot</text><line style="stroke: #A80036; stroke-width: 1.5;" x1="10" x2="126" y1="524" y2="524"/><text fill="#000000" font-family="sans-serif" font-size="11" lengthAdjust="spacingAndGlyphs" textLength="62" x="15" y="538.6348">id: ObjectID</text><text fill="#000000" font-family="sans-serif" font-size="11" lengthAdjust="spacingAndGlyphs" textLength="53" x="15" y="551.5898">date: Date</text><text fill="#000000" font-family="sans-serif" font-size="11" lengthAdjust="spacingAndGlyphs" textLength="106" x="15" y="564.5449">hour_from: number</text><text fill="#000000" font-family="sans-serif" font-size="11" lengthAdjust="spacingAndGlyphs" textLength="91" x="15" y="577.5">hour_to: number</text><text fill="#000000" font-family="sans-serif" font-size="11" lengthAdjust="spacingAndGlyphs" textLength="66" x="15" y="590.4551">signed: bool</text><text fill="#000000" font-family="sans-serif" font-size="11" lengthAdjust="spacingAndGlyphs" textLength="93" x="15" y="603.4102">student: ObjectID</text><text fill="#000000" font-family="sans-serif" font-size="11" lengthAdjust="spacingAndGlyphs" textLength="92" x="15" y="616.3652">teacher: ObjectID</text><line style="stroke: #A80036; stroke-width: 1.5;" x1="10" x2="126" y1="622.6855" y2="622.6855"/><!--class Roles--><rect fill="#FEFECE" filter="url(#fp0f30u1minzw)" height="112.7754" id="Roles" style="stroke: #A80036; stroke-width: 1.5;" width="66" x="257" y="21"/><ellipse cx="273.35" cy="37" fill="#EB937F" rx="11" ry="11" style="stroke: #A80036; stroke-width: 1.0;"/><path d="M277.4643,43 L269.7445,43 L269.7445,30.6069 L277.4643,30.6069 L277.4643,32.7651 L272.1933,32.7651 L272.1933,35.438 L276.9662,35.438 L276.9662,37.5962 L272.1933,37.5962 L272.1933,40.8418 L277.4643,40.8418 Z "/><text fill="#000000" font-family="sans-serif" font-size="12" lengthAdjust="spacingAndGlyphs" textLength="31" x="287.65" y="41.5352">Roles</text><line style="stroke: #A80036; stroke-width: 1.5;" x1="258" x2="322" y1="53" y2="53"/><text fill="#000000" font-family="sans-serif" font-size="11" lengthAdjust="spacingAndGlyphs" textLength="42" x="263" y="67.6348">PARENT</text><text fill="#000000" font-family="sans-serif" font-size="11" lengthAdjust="spacingAndGlyphs" textLength="54" x="263" y="80.5898">MANAGER</text><text fill="#000000" font-family="sans-serif" font-size="11" lengthAdjust="spacingAndGlyphs" textLength="50" x="263" y="93.5449">STUDENT</text><text fill="#000000" font-family="sans-serif" font-size="11" lengthAdjust="spacingAndGlyphs" textLength="36" x="263" y="106.5">ADMIN</text><text fill="#000000" font-family="sans-serif" font-size="11" lengthAdjust="spacingAndGlyphs" textLength="50" x="263" y="119.4551">TEACHER</text><line style="stroke: #A80036; stroke-width: 1.5;" x1="258" x2="322" y1="125.7754" y2="125.7754"/><!--link User to User--><path d="M126.8933,57.2512 C146.1592,57.3559 161.5,64.1055 161.5,77.5 C161.5,89.6388 148.9008,96.3202 132.199,97.5441 " fill="none" id="User-User" style="stroke: #A80036; stroke-width: 1.0;"/><polygon fill="#A80036" points="126.8933,97.7488,136.0409,101.3987,131.8896,97.5559,135.7323,93.4046,126.8933,97.7488" style="stroke: #A80036; stroke-width: 1.0;"/><text fill="#000000" font-family="sans-serif" font-size="13" lengthAdjust="spacingAndGlyphs" textLength="65" x="167.5" y="82.5684">isParentOf</text><text fill="#000000" font-family="sans-serif" font-size="13" lengthAdjust="spacingAndGlyphs" textLength="8" x="134.5584" y="51.4758">n</text><text fill="#000000" font-family="sans-serif" font-size="13" lengthAdjust="spacingAndGlyphs" textLength="8" x="134.5584" y="96.909">n</text><!--link Entry to Slot--><path d="M68,415.1448 C68,438.9731 68,464.1749 68,486.8257 " fill="none" id="Entry-Slot" style="stroke: #A80036; stroke-width: 1.0;"/><polygon fill="#A80036" points="68,491.9195,72,482.9195,68,486.9195,64,482.9195,68,491.9195" style="stroke: #A80036; stroke-width: 1.0;"/><text fill="#000000" font-family="sans-serif" font-size="13" lengthAdjust="spacingAndGlyphs" textLength="68" x="69" y="458.5684">consistsOf</text><text fill="#000000" font-family="sans-serif" font-size="13" lengthAdjust="spacingAndGlyphs" textLength="8" x="59.7188" y="434.9938">1</text><text fill="#000000" font-family="sans-serif" font-size="13" lengthAdjust="spacingAndGlyphs" textLength="8" x="59.5625" y="481.0914">n</text><!--link User to Entry--><path d="M68,147.1718 C68,169.4632 68,194.6077 68,218.6588 " fill="none" id="User-Entry" style="stroke: #A80036; stroke-width: 1.0;"/><polygon fill="#A80036" points="68,223.7731,72,214.7731,68,218.7731,64,214.7731,68,223.7731" style="stroke: #A80036; stroke-width: 1.0;"/><text fill="#000000" font-family="sans-serif" font-size="13" lengthAdjust="spacingAndGlyphs" textLength="45" x="69" y="190.5684">creates</text><text fill="#000000" font-family="sans-serif" font-size="13" lengthAdjust="spacingAndGlyphs" textLength="8" x="59.6063" y="167.3675">1</text><text fill="#000000" font-family="sans-serif" font-size="13" lengthAdjust="spacingAndGlyphs" textLength="8" x="59.6813" y="213.1476">n</text><!--
@startuml DB
class User {
  id: ObjectID
  username: string
  displayname: string
  email: string
  password: string
  role: Roles
  children: ObjectID[]
}
class Entry {
  id: ObjectID
  date: Date
  dateEnd: Date
  student: ObjectID
  slots: ObjectID[]
  forSchool: bool
  reason: string
  signedManager: bool
  sigendParent: bool
  signManager()
  signParent()
}
class Slot {
  id: ObjectID
  date: Date
  hour_from: number
  hour_to: number
  signed: bool
  student: ObjectID
  teacher: ObjectID
}
enum Roles {
  PARENT
  MANAGER
  STUDENT
  ADMIN
  TEACHER
}

User "n" - -> "n" User : isParentOf
Entry "1" - -> "n" Slot : consistsOf
User "1" - -> "n" Entry : creates


@enduml

PlantUML version 1.2018.01(Sun Jan 28 19:08:22 CET 2018)
(GPL source distribution)
Java Runtime: Java(TM) SE Runtime Environment
JVM: Java HotSpot(TM) 64-Bit Server VM
Java Version: 1.8.0_144-b01
Operating System: Mac OS X
OS Version: 10.13.3
Default Encoding: UTF-8
Language: en
Country: US
--></g></svg>