<?xml version="1.0" encoding="utf-8"?>
<!-- Generator: Adobe Illustrator 12.0.0, SVG Export Plug-In . SVG Version: 6.00 Build 51448)  -->
<!DOCTYPE svg PUBLIC "-//W3C//DTD SVG 1.1//EN" "http://www.w3.org/Graphics/SVG/1.1/DTD/svg11.dtd" [
	<!ENTITY ns_svg "http://www.w3.org/2000/svg">
	<!ENTITY ns_xlink "http://www.w3.org/1999/xlink">
]>
<svg  version="1.1" id="Ebene_1" xmlns="&ns_svg;" xmlns:xlink="&ns_xlink;" width="201.26" height="68.579"
	 viewBox="0 0 201.26 68.579" overflow="visible" enable-background="new 0 0 201.26 68.579" xml:space="preserve">
<g>
	<defs>
		<rect id="XMLID_1_" x="0" width="201.259" height="68.579"/>
	</defs>
	<clipPath id="XMLID_11_">
		<use xlink:href="#XMLID_1_" />
	</clipPath>
	<path clip-path="url(#XMLID_11_)" fill="#00305E" d="M2.161,23.407c0.684,0.222,1.418-0.153,1.64-0.837
		c0.223-0.684-0.152-1.418-0.835-1.64c-0.684-0.223-1.419,0.153-1.64,0.837C1.103,22.451,1.477,23.185,2.161,23.407"/>
	<path clip-path="url(#XMLID_11_)" fill="#00305E" d="M1.504,39.494c0.71-0.113,1.195-0.777,1.082-1.488
		c-0.111-0.711-0.778-1.197-1.49-1.082c-0.709,0.112-1.194,0.778-1.079,1.49C0.129,39.123,0.793,39.606,1.504,39.494"/>
	<path clip-path="url(#XMLID_11_)" fill="#00305E" d="M8.224,54.127c0.582-0.424,0.71-1.236,0.291-1.818
		c-0.425-0.582-1.24-0.711-1.823-0.287c-0.58,0.421-0.709,1.234-0.285,1.818C6.829,54.421,7.642,54.55,8.224,54.127"/>
	<path clip-path="url(#XMLID_11_)" fill="#00305E" d="M20.853,64.114c0.329-0.641,0.074-1.426-0.567-1.751
		c-0.642-0.327-1.424-0.072-1.753,0.568c-0.325,0.64-0.07,1.425,0.572,1.751C19.746,65.011,20.525,64.756,20.853,64.114"/>
	<path clip-path="url(#XMLID_11_)" fill="#00305E" d="M36.641,67.278c0-0.719-0.58-1.301-1.3-1.301
		c-0.722,0-1.304,0.582-1.304,1.301c0,0.72,0.582,1.303,1.304,1.3C36.059,68.581,36.641,67.998,36.641,67.278"/>
	<path clip-path="url(#XMLID_11_)" fill="#00305E" d="M15.879,4.716l-0.572,0.487l2.472,2.904c0.696,0.814,0.855,1.587,0.515,2.469
		c-0.179,0.44-0.467,0.843-0.839,1.162c-1.106,0.94-2.545,0.903-3.396-0.096l-2.656-3.115l-0.57,0.484l-0.24-0.281l1.814-1.543
		l0.24,0.281l-0.573,0.486l2.456,2.883c0.784,0.92,1.838,1.062,2.684,0.342c0.87-0.74,0.93-1.857,0.152-2.774l-2.449-2.871
		l-0.57,0.486l-0.24-0.283l1.53-1.302L15.879,4.716z"/>
	<path clip-path="url(#XMLID_11_)" fill="#00305E" d="M24.759,6.986l-2,1.059l-0.172-0.328l0.663-0.349l-1.372-2.594
		c-0.249-0.469-0.643-0.635-1.031-0.429c-0.38,0.203-0.514,0.486-0.815,1.778l1.219,2.301l0.671-0.355l0.173,0.327l-2.008,1.063
		l-0.174-0.327l0.671-0.357L18.901,5.59L18.13,6L18.003,5.76l1.092-1.02l0.159-0.085l0.525,0.992c0.255-1.12,0.51-1.563,1.077-1.861
		c0.655-0.347,1.286-0.138,1.647,0.544l1.419,2.681l0.663-0.352L24.759,6.986z"/>
	<path clip-path="url(#XMLID_11_)" fill="#00305E" d="M24.102,0.03c0.283-0.096,0.576,0.047,0.67,0.321
		c0.096,0.284-0.047,0.577-0.331,0.675c-0.273,0.094-0.566-0.049-0.663-0.334C23.684,0.418,23.825,0.125,24.102,0.03 M27.449,6.153
		l-2.15,0.737l-0.121-0.349L25.9,6.293l-1.169-3.41l-0.824,0.286l-0.089-0.258l1.237-0.837l0.17-0.058l1.385,4.033l0.72-0.246
		L27.449,6.153z"/>
</g>
<polygon fill="#00305E" points="31.124,1.078 30.712,1.163 29.966,5.697 29.77,5.736 27.202,1.884 26.789,1.958 26.715,1.596 
	28.617,1.21 28.691,1.572 28.003,1.711 29.758,4.369 30.27,1.252 29.615,1.386 29.539,1.021 31.05,0.715 "/>
<g>
	<defs>
		<rect id="XMLID_3_" x="0" width="201.259" height="68.579"/>
	</defs>
	<clipPath id="XMLID_12_">
		<use xlink:href="#XMLID_3_" />
	</clipPath>
	<path clip-path="url(#XMLID_12_)" fill="#00305E" d="M35.823,4.21c-0.545,0.384-0.812,0.495-1.212,0.512
		c-0.951,0.038-1.646-0.805-1.696-2.055l-0.006-0.11l3.152-0.13l-0.013-0.27c-0.043-1.081-0.814-1.791-1.895-1.746
		c-1.238,0.051-2.108,1.109-2.049,2.511c0.054,1.379,0.995,2.323,2.266,2.268c0.58-0.022,0.927-0.156,1.658-0.617L35.823,4.21z
		 M32.903,2.157c0.058-0.784,0.547-1.296,1.277-1.325c0.581-0.024,1.008,0.388,1.035,0.989l0.01,0.239L32.903,2.157z"/>
	<path clip-path="url(#XMLID_12_)" fill="#00305E" d="M39.112,5.286l-2.459-0.253l0.037-0.369l0.758,0.078l0.368-3.583L36.949,1.07
		l0.028-0.273l1.474-0.238l0.178,0.019l-0.114,1.115c0.813-0.843,1.092-1.035,1.451-1c0.121,0.014,0.217,0.053,0.27,0.119
		l0.28,0.301L39.867,1.75c-0.179-0.208-0.309-0.312-0.407-0.323c-0.181-0.019-0.378,0.133-0.992,0.744l-0.273,2.648l0.955,0.098
		L39.112,5.286z"/>
	<path clip-path="url(#XMLID_12_)" fill="#00305E" d="M40.73,5.638l-0.39-0.095l0.335-1.38l0.448,0.107L41.06,4.533
		c-0.1,0.419,0.355,0.92,0.959,1.067c0.533,0.13,1.002-0.057,1.096-0.445c0.095-0.39-0.124-0.669-1.052-1.318
		c-0.845-0.585-1.091-1.026-0.941-1.637c0.185-0.76,0.922-1.126,1.817-0.911c0.429,0.104,0.735,0.293,0.953,0.582l0.143-0.337
		l0.418,0.101l-0.575,1.347L43.46,2.878c0.064-0.095,0.113-0.217,0.135-0.304c0.093-0.381-0.269-0.799-0.795-0.926
		c-0.504-0.123-0.903,0.07-1.004,0.488c-0.101,0.419-0.046,0.485,1.016,1.246c0.863,0.61,1.086,1.006,0.935,1.629
		c-0.189,0.778-0.926,1.175-1.791,0.964c-0.544-0.131-0.921-0.356-1.141-0.687L40.73,5.638z"/>
	<path clip-path="url(#XMLID_12_)" fill="#00305E" d="M47.576,0.396c0.281,0.106,0.415,0.402,0.311,0.674
		c-0.106,0.282-0.402,0.416-0.684,0.311c-0.27-0.103-0.405-0.399-0.298-0.681C47.009,0.429,47.304,0.294,47.576,0.396 M46.251,7.249
		l-2.127-0.803l0.132-0.345l0.712,0.268l1.271-3.372l-0.813-0.309l0.094-0.251l1.489,0.144l0.168,0.062l-1.508,3.992l0.71,0.268
		L46.251,7.249z"/>
	<path clip-path="url(#XMLID_12_)" fill="#00305E" d="M49.249,8.253c-0.662,0.138-0.882,0.129-1.215-0.036
		c-0.517-0.26-0.669-0.74-0.397-1.284l1.383-2.77l-0.778-0.387l0.119-0.242l0.879,0.193l0.617-1.237l0.646,0.323L49.87,4.076
		l1.111,0.554l-0.206,0.413l-1.11-0.556l-1.344,2.686c-0.168,0.34-0.114,0.523,0.18,0.673c0.189,0.093,0.323,0.116,0.715,0.089
		L49.249,8.253z"/>
	<path clip-path="url(#XMLID_12_)" fill="#00305E" d="M52.051,9.411c-0.584,0.073-0.879,0.039-1.143-0.142
		c-0.346-0.236-0.415-0.612-0.177-0.96l0.283-0.412l1.638,0.638L52.051,9.411z M53.917,4.751c0.158-0.233,0.107-0.546-0.125-0.705
		c-0.23-0.158-0.542-0.094-0.702,0.138c-0.152,0.221-0.101,0.536,0.129,0.695C53.449,5.039,53.763,4.974,53.917,4.751 M53.01,10.7
		l-0.634-0.436l1.745-2.541c0.375-0.546,0.146-1.237-0.581-1.736c-0.751-0.516-1.548-0.542-1.876-0.063
		c-0.063,0.094-0.084,0.139-0.093,0.278l0.882,0.289l0.272-0.396c0.318,0.049,0.443,0.098,0.607,0.211
		c0.33,0.228,0.413,0.637,0.189,0.966l-0.643,0.933l-1.632-0.646c-0.458-0.183-0.969-0.023-1.258,0.398
		c-0.38,0.554-0.231,1.238,0.339,1.629c0.437,0.301,0.87,0.342,1.512,0.153c-0.023,0.03-0.041,0.057-0.058,0.081
		c-0.21,0.305-0.185,0.59,0.07,0.766c0.066,0.044,0.2,0.099,0.328,0.141l0.673,0.204L53.01,10.7z M55.376,5.754
		c0.159-0.232,0.105-0.546-0.125-0.705c-0.229-0.159-0.542-0.094-0.701,0.137c-0.153,0.224-0.102,0.538,0.13,0.697
		C54.912,6.042,55.224,5.976,55.376,5.754"/>
	<path clip-path="url(#XMLID_12_)" fill="#00305E" d="M55.21,12.78c-0.675-0.04-0.883-0.105-1.162-0.354
		c-0.43-0.386-0.453-0.887-0.045-1.342l2.061-2.309l-0.652-0.579l0.182-0.203l0.797,0.417l0.92-1.03l0.537,0.479l-0.942,1.052
		l0.927,0.827l-0.307,0.345l-0.924-0.826L54.6,11.495c-0.255,0.284-0.249,0.475-0.004,0.696c0.155,0.14,0.28,0.196,0.669,0.274
		L55.21,12.78z"/>
	<path clip-path="url(#XMLID_12_)" fill="#00305E" d="M8.124,38.338l-0.478-2.426l0.363-0.071l0.145,0.737l5.757-1.136l-0.146-0.736
		l0.364-0.073l0.554,2.81c0.223,1.139-0.387,2.08-1.487,2.293c-1.099,0.218-2.138-0.547-2.378-1.764
		c-0.038-0.189-0.049-0.297-0.049-0.563l0.342-0.067c-0.002,0.133,0.006,0.18,0.024,0.271c0.165,0.844,1.011,1.401,1.884,1.229
		c0.788-0.154,1.313-0.799,1.185-1.447l-0.212-1.071l-5.666,1.117l0.163,0.834L8.124,38.338z"/>
	<path clip-path="url(#XMLID_12_)" fill="#00305E" d="M9.847,44.15c0.493,1.104,1.874,1.564,3.079,1.028
		c1.207-0.538,1.785-1.872,1.292-2.98c-0.492-1.104-1.873-1.563-3.079-1.025C9.932,41.711,9.354,43.043,9.847,44.15 M13.833,42.371
		c0.306,0.688-0.238,1.575-1.252,2.029c-1.017,0.452-2.043,0.264-2.349-0.422s0.251-1.57,1.259-2.02
		C12.504,41.506,13.526,41.686,13.833,42.371"/>
	<path clip-path="url(#XMLID_12_)" fill="#00305E" d="M13.659,49.534c-0.648-0.197-0.835-0.312-1.047-0.617
		c-0.328-0.479-0.232-0.969,0.271-1.316l2.548-1.754l-0.494-0.72l0.222-0.154l0.674,0.593l1.139-0.784l0.41,0.593l-1.163,0.803
		l0.705,1.021l-0.379,0.262l-0.704-1.022l-2.474,1.706c-0.313,0.215-0.354,0.401-0.167,0.677c0.119,0.169,0.227,0.254,0.585,0.422
		L13.659,49.534z"/>
	<path clip-path="url(#XMLID_12_)" fill="#00305E" d="M14.493,51.314l-0.279-0.286l1.021-0.988l0.32,0.328l-0.193,0.189
		c-0.31,0.298-0.193,0.967,0.238,1.411c0.383,0.398,0.876,0.492,1.165,0.212c0.288-0.278,0.252-0.634-0.185-1.672
		c-0.402-0.951-0.371-1.453,0.082-1.892c0.562-0.542,1.38-0.457,2.021,0.206c0.306,0.315,0.463,0.638,0.494,0.997l0.301-0.208
		l0.299,0.311l-1.204,0.831l-0.3-0.312c0.108-0.048,0.215-0.123,0.28-0.186c0.281-0.271,0.198-0.818-0.178-1.207
		c-0.361-0.372-0.801-0.424-1.109-0.124c-0.31,0.298-0.296,0.383,0.193,1.596c0.4,0.978,0.378,1.429-0.083,1.876
		c-0.574,0.559-1.409,0.501-2.029-0.142c-0.389-0.401-0.588-0.795-0.595-1.192L14.493,51.314z"/>
	<path clip-path="url(#XMLID_12_)" fill="#00305E" d="M22.228,56.78l-0.722-0.489l3.824-5.645l-0.157-0.106l-1.413-0.486
		l-0.153,0.225l0.721,0.487l-1.297,1.915c-0.202-0.377-0.323-0.521-0.605-0.712c-1.086-0.734-2.588-0.41-3.363,0.733
		c-0.717,1.062-0.604,2.357,0.256,2.943c0.423,0.286,0.816,0.335,1.579,0.185l-0.393,0.582l0.157,0.105l1.409,0.495L22.228,56.78z
		 M20.799,55.462c-0.442,0.026-0.601-0.008-0.858-0.182c-0.68-0.461-0.71-1.292-0.08-2.22c0.645-0.952,1.616-1.226,2.42-0.682
		c0.488,0.33,0.536,0.617,0.187,1.132l-1.301,1.923C21.003,55.443,20.876,55.454,20.799,55.462"/>
	<path clip-path="url(#XMLID_12_)" fill="#00305E" d="M27.17,58.934l-0.717-0.286l1.141-2.863c0.246-0.614-0.132-1.24-0.948-1.566
		c-0.846-0.337-1.63-0.185-1.845,0.355c-0.04,0.102-0.049,0.15-0.029,0.29l0.924,0.088l0.177-0.448
		c0.322-0.021,0.456-0.002,0.641,0.072c0.37,0.148,0.542,0.53,0.395,0.902l-0.42,1.052l-1.734-0.273
		c-0.488-0.075-0.95,0.194-1.139,0.667c-0.25,0.623,0.047,1.258,0.688,1.516c0.495,0.196,0.928,0.141,1.509-0.188
		c-0.015,0.038-0.026,0.066-0.038,0.095c-0.136,0.344-0.051,0.616,0.238,0.73c0.074,0.028,0.215,0.054,0.352,0.063l0.701,0.055
		L27.17,58.934z M25.947,57.887c-0.551,0.2-0.846,0.233-1.145,0.113c-0.389-0.155-0.54-0.506-0.385-0.897l0.185-0.465l1.741,0.263
		L25.947,57.887z"/>
	<path clip-path="url(#XMLID_12_)" fill="#00305E" d="M36.787,60.837l-2.251-0.219l0.036-0.369l0.759,0.074l0.283-2.921
		c0.053-0.538-0.187-0.873-0.625-0.916c-0.328-0.032-0.6,0.092-1.075,0.51l-0.584,0.516l-0.252,2.59l0.747,0.073l-0.036,0.371
		l-2.252-0.221l0.034-0.369l0.748,0.072l0.287-2.919c0.052-0.528-0.184-0.884-0.625-0.925c-0.429-0.044-0.695,0.12-1.66,1.033
		l-0.253,2.592l0.757,0.073l-0.036,0.368l-2.261-0.221l0.036-0.368l0.758,0.073l0.349-3.586l-0.867-0.086l0.028-0.269l1.472-0.247
		l0.179,0.018l-0.109,1.113c0.831-0.793,1.288-1.02,1.925-0.958c0.707,0.07,1.059,0.477,1.085,1.253
		c0.831-0.794,1.286-1.02,1.913-0.96c0.738,0.074,1.15,0.596,1.075,1.353l-0.295,3.029l0.746,0.072L36.787,60.837z"/>
	<path clip-path="url(#XMLID_12_)" fill="#00305E" d="M48.253,30.372h-1.312v8.196h1.312V30.372z M51.763,30.372h-2.507v8.196h2.507
		V30.372z M46.757,44.059h7.504V39.67h-7.504V44.059z M42.185,41.877c0,0.91,1.502,1.716,3.779,2.18v-4.361
		C43.938,40.107,42.185,40.873,42.185,41.877 M39.246,30.365h-1.312v8.21h1.312V30.365z M40.624,38.574h1.312v-8.21h-1.312V38.574z
		 M43.303,38.574h1.311v-8.21h-1.311V38.574z M45.964,45.127v2.742c-3.601-0.534-6.177-1.684-6.718-3.062h-2.694V28.475h9.41v10.097
		c-3.934,0.557-6.688,1.841-6.673,3.296C39.31,43.518,42.71,44.683,45.964,45.127 M54.075,30.372h-1.311v8.196h1.311V30.372z
		 M58.832,41.877c0-1.004-1.757-1.77-3.78-2.182v4.361C57.328,43.593,58.832,42.787,58.832,41.877 M56.399,38.574h1.313v-8.21
		h-1.313V38.574z M59.079,38.574h1.312v-8.21h-1.312V38.574z M61.77,38.574h1.311v-8.21H61.77V38.574z M55.054,28.475h9.407v16.333
		H61.77c-0.544,1.378-3.118,2.527-6.718,3.062v-2.742c3.253-0.444,6.654-1.609,6.672-3.26c0.017-1.455-2.739-2.739-6.67-3.296
		V28.475z M36.552,26.639c-0.049-0.144-0.087-0.342-0.087-0.567c0-0.428,0.117-0.776,0.262-0.776c0.146,0,0.263,0.348,0.263,0.776
		c0,0.225-0.034,0.429-0.087,0.568h2.037c-0.05-0.139-0.084-0.343-0.084-0.568c0-0.428,0.118-0.776,0.261-0.776
		c0.148,0,0.265,0.348,0.265,0.776c0,0.225-0.034,0.429-0.083,0.568h2.017c-0.053-0.139-0.083-0.343-0.083-0.568
		c0-0.428,0.117-0.776,0.262-0.776c0.144,0,0.261,0.348,0.261,0.776c0,0.225-0.032,0.429-0.083,0.568h2.014
		c-0.051-0.139-0.083-0.343-0.083-0.568c0-0.428,0.117-0.776,0.26-0.776c0.148,0,0.265,0.348,0.265,0.776
		c0,0.225-0.035,0.429-0.085,0.568h1.918v-2.88h0.65c0.073-0.199,0.192-0.558,0.178-0.962c-0.065-2.083,1.059-3.805,3.524-3.893
		c-0.043-0.138-0.072-0.327-0.072-0.535c0-0.431,0.121-0.778,0.265-0.778c0.146,0,0.266,0.347,0.266,0.778
		c0,0.208-0.028,0.397-0.074,0.535c2.465,0.088,3.589,1.81,3.525,3.893c-0.013,0.404,0.104,0.763,0.182,0.962h0.648v2.88h1.917
		c-0.051-0.139-0.083-0.343-0.083-0.568c0-0.428,0.115-0.776,0.261-0.776s0.263,0.348,0.263,0.776c0,0.225-0.033,0.429-0.084,0.568
		h2.014c-0.051-0.139-0.083-0.343-0.083-0.568c0-0.428,0.115-0.776,0.264-0.776c0.142,0,0.261,0.348,0.261,0.776
		c0,0.225-0.033,0.429-0.085,0.568h2.018c-0.051-0.139-0.083-0.343-0.083-0.568c0-0.428,0.117-0.776,0.262-0.776
		c0.143,0,0.262,0.348,0.262,0.776c0,0.225-0.033,0.429-0.085,0.568h2.037c-0.053-0.139-0.085-0.343-0.085-0.568
		c0-0.428,0.118-0.776,0.262-0.776s0.264,0.348,0.264,0.776c0,0.225-0.038,0.423-0.091,0.567v1.081h-9.406v0.742h-9.092V27.72h9.09
		l-4.545-2.437l-4.545,2.437h-9.41V26.639z"/>
	<path clip-path="url(#XMLID_12_)" fill="#00305E" d="M80.622,36.935c-0.318,0-0.502-0.017-0.938-0.1v-0.587
		c0.218,0.05,0.301,0.05,0.453,0.05c1.442,0,2.631-1.207,2.631-2.699c0-1.342-0.887-2.415-1.996-2.415h-1.825v9.675h1.424
		l-0.016,0.62h-4.141v-0.62h1.256v-9.825h-1.256v-0.62h4.793c1.946,0,3.286,1.307,3.286,3.185S82.703,36.935,80.622,36.935"/>
	<path clip-path="url(#XMLID_12_)" fill="#00305E" d="M88.445,34.386c-1.256,0-2.229,1.443-2.229,3.303
		c0,1.844,0.973,3.303,2.229,3.303c1.259,0,2.248-1.441,2.248-3.303C90.693,35.83,89.704,34.386,88.445,34.386 M88.445,41.696
		c-2.027,0-3.671-1.794-3.671-4.007c0-2.214,1.644-4.007,3.671-4.007c2.029,0,3.671,1.793,3.671,4.007
		C92.116,39.902,90.474,41.696,88.445,41.696"/>
	<path clip-path="url(#XMLID_12_)" fill="#00305E" d="M95.854,41.629c-0.973,0-1.561-0.604-1.561-1.626v-5.18h-1.458V34.37
		l1.458-0.368v-2.314h1.208v2.363h2.078v0.772h-2.078v5.03c0,0.635,0.218,0.87,0.771,0.87c0.353,0,0.569-0.066,1.14-0.402
		l0.285,0.454C96.809,41.479,96.474,41.629,95.854,41.629"/>
	<path clip-path="url(#XMLID_12_)" fill="#00305E" d="M101.974,41.696c-0.938,0-1.644-0.218-2.13-0.671v0.604h-0.671v-2.381h0.771
		v0.452c0,0.722,0.94,1.358,1.979,1.358c0.922,0,1.609-0.487,1.609-1.157c0-0.671-0.47-1.039-2.229-1.727
		c-1.61-0.62-2.18-1.241-2.18-2.296c0-1.308,1.055-2.197,2.599-2.197c0.737,0,1.308,0.184,1.777,0.569l0.1-0.602h0.721l-0.402,2.414
		h-0.721c0.067-0.184,0.101-0.403,0.101-0.554c0-0.653-0.755-1.19-1.66-1.19c-0.871,0-1.441,0.469-1.441,1.19
		c0,0.722,0.117,0.805,2.146,1.627c1.643,0.654,2.163,1.207,2.163,2.28C104.506,40.758,103.465,41.696,101.974,41.696"/>
	<path clip-path="url(#XMLID_12_)" fill="#00305E" d="M111.61,35.779c0-1.04-0.334-1.392-1.323-1.392
		c-1.627,0-2.715,1.291-2.715,3.219c0,1.878,0.819,3.001,2.194,3.001c0.521,0,0.771-0.1,1.359-0.554
		c0.1-0.083,0.269-0.218,0.484-0.385V35.779z M111.931,41.646h-0.32v-1.173c-0.922,0.922-1.507,1.224-2.361,1.224
		c-1.744,0-3.119-1.694-3.119-3.84c0-2.313,1.776-4.174,3.974-4.174c0.569,0,0.871,0.084,1.507,0.419v-3.873h-1.458v-0.452
		l2.415-0.654h0.318V40.54h1.459v0.469L111.931,41.646z"/>
	<path clip-path="url(#XMLID_12_)" fill="#00305E" d="M119.689,38.041l-2.866,0.671v0.839c0,0.704,0.454,1.156,1.157,1.156
		c0.536,0,0.972-0.234,1.709-0.889V38.041z M121.116,41.512c-0.219,0.067-0.453,0.117-0.588,0.117c-0.52,0-0.822-0.369-0.822-0.989
		v-0.167c-0.703,0.872-1.34,1.225-2.229,1.225c-1.156,0-2.011-0.806-2.011-1.93c0-0.854,0.553-1.558,1.357-1.743l2.866-0.654v-1.895
		c0-0.67-0.501-1.156-1.173-1.156c-0.336,0-0.553,0.05-1.04,0.285v0.805l-1.491,0.435c-0.118-0.2-0.135-0.284-0.135-0.469
		c0-0.972,1.124-1.693,2.65-1.693c1.475,0,2.446,0.737,2.446,1.844v5.163h1.291v0.471L121.116,41.512z"/>
	<path clip-path="url(#XMLID_12_)" fill="#00305E" d="M133.233,41.479v-0.62h1.274v-4.912c0-0.906-0.452-1.426-1.19-1.426
		c-0.554,0-0.987,0.252-1.71,1.023L130.72,36.5v4.359h1.257v0.62h-3.788v-0.62h1.257v-4.912c0-0.889-0.453-1.443-1.19-1.443
		c-0.721,0-1.14,0.319-2.6,1.996v4.359h1.274v0.62h-3.806v-0.62h1.274v-6.036h-1.459v-0.452l2.416-0.655h0.3v1.878
		c1.258-1.458,1.979-1.911,3.052-1.911c1.19,0,1.844,0.621,2.013,1.911c1.257-1.458,1.977-1.911,3.034-1.911
		c1.24,0,2.011,0.805,2.011,2.079v5.097h1.259v0.62H133.233z"/>
</g>
<polygon fill="#00305E" points="150.681,32.593 150.681,31.252 147.326,31.252 147.326,40.859 149.005,40.859 149.005,41.479 
	144.176,41.479 144.176,40.859 145.853,40.859 145.853,31.252 142.499,31.252 142.499,32.593 141.693,32.593 141.693,29.944 
	142.499,29.944 142.499,30.413 150.681,30.413 150.681,29.944 151.484,29.944 151.484,32.593 "/>
<g>
	<defs>
		<rect id="XMLID_5_" x="0" width="201.259" height="68.579"/>
	</defs>
	<clipPath id="XMLID_13_">
		<use xlink:href="#XMLID_5_" />
	</clipPath>
	<path clip-path="url(#XMLID_13_)" fill="#00305E" d="M156.375,35.459c-0.335-0.318-0.569-0.469-0.738-0.469
		c-0.302,0-0.603,0.284-1.525,1.407v4.461h1.608v0.62h-4.141v-0.62h1.275v-6.036h-1.458v-0.452l2.414-0.655h0.301v1.878
		c1.207-1.542,1.644-1.911,2.247-1.911c0.2,0,0.369,0.05,0.469,0.152l0.521,0.451L156.375,35.459z"/>
	<path clip-path="url(#XMLID_13_)" fill="#00305E" d="M162.123,38.041l-2.866,0.671v0.839c0,0.704,0.453,1.156,1.157,1.156
		c0.536,0,0.971-0.234,1.709-0.889V38.041z M163.549,41.512c-0.218,0.067-0.452,0.117-0.587,0.117c-0.521,0-0.822-0.369-0.822-0.989
		v-0.167c-0.704,0.872-1.34,1.225-2.229,1.225c-1.156,0-2.011-0.806-2.011-1.93c0-0.854,0.552-1.558,1.357-1.743l2.866-0.654v-1.895
		c0-0.67-0.502-1.156-1.173-1.156c-0.336,0-0.553,0.05-1.04,0.285v0.805l-1.491,0.435c-0.118-0.2-0.135-0.284-0.135-0.469
		c0-0.972,1.124-1.693,2.65-1.693c1.474,0,2.445,0.737,2.445,1.844v5.163h1.292v0.471L163.549,41.512z"/>
	<path clip-path="url(#XMLID_13_)" fill="#00305E" d="M170.622,41.479v-0.62h1.256v-4.912c0-0.889-0.452-1.443-1.19-1.443
		c-0.721,0-1.139,0.319-2.6,1.996v4.359h1.275v0.62h-3.807v-0.62h1.275v-6.036h-1.459v-0.452l2.415-0.655h0.3v1.878
		c1.259-1.458,1.979-1.911,3.052-1.911c1.241,0,2.014,0.805,2.014,2.095v5.081h1.257v0.62H170.622z"/>
	<path clip-path="url(#XMLID_13_)" fill="#00305E" d="M178.431,41.696c-0.938,0-1.644-0.218-2.13-0.671v0.604h-0.671v-2.381h0.771
		v0.452c0,0.722,0.94,1.358,1.979,1.358c0.922,0,1.609-0.487,1.609-1.157c0-0.671-0.47-1.039-2.229-1.727
		c-1.609-0.62-2.179-1.241-2.179-2.296c0-1.308,1.055-2.197,2.599-2.197c0.737,0,1.308,0.184,1.777,0.569l0.1-0.602h0.721
		l-0.402,2.414h-0.721c0.067-0.184,0.101-0.403,0.101-0.554c0-0.653-0.755-1.19-1.66-1.19c-0.871,0-1.44,0.469-1.44,1.19
		c0,0.722,0.116,0.805,2.146,1.627c1.642,0.654,2.163,1.207,2.163,2.28C180.963,40.758,179.922,41.696,178.431,41.696"/>
	<path clip-path="url(#XMLID_13_)" fill="#00305E" d="M188.437,30.866c-0.687-0.604-0.871-0.737-1.659-1.141
		c-1.342,0.252-1.894,1.191-1.894,3.22v1.106h1.928v0.771h-1.928v6.037h1.608v0.619h-4.141v-0.619h1.274v-6.037h-1.458V34.37
		l1.458-0.369v-1.374c0-2.113,1.376-3.537,3.403-3.537c0.822,0,1.559,0.2,2.329,0.635L188.437,30.866z"/>
	<path clip-path="url(#XMLID_13_)" fill="#00305E" d="M193.047,36.114c0-1.006-0.688-1.727-1.66-1.727
		c-1.225,0-2.079,0.821-2.229,2.13h3.89V36.114z M189.141,37.187v0.185c0,2.094,1.105,3.554,2.699,3.554
		c0.67,0,1.124-0.169,2.063-0.772l0.317,0.621c-1.256,0.721-1.844,0.922-2.817,0.922c-2.127,0-3.637-1.643-3.637-3.957
		c0-2.347,1.525-4.057,3.604-4.057c1.813,0,3.053,1.241,3.053,3.051v0.453H189.141z"/>
	<path clip-path="url(#XMLID_13_)" fill="#00305E" d="M200.287,35.459c-0.335-0.318-0.569-0.469-0.739-0.469
		c-0.301,0-0.602,0.284-1.524,1.407v4.461h1.608v0.62h-4.141v-0.62h1.275v-6.036h-1.458v-0.452l2.414-0.655h0.301v1.878
		c1.207-1.542,1.644-1.911,2.247-1.911c0.2,0,0.369,0.05,0.469,0.152l0.521,0.451L200.287,35.459z"/>
	<path clip-path="url(#XMLID_13_)" fill="#00305E" d="M108.406,51.975c0,1.375-0.789,2.335-1.92,2.335
		c-0.514,0-1.236-0.314-1.236-1.016v-2.252c0.395-0.516,0.9-1.033,1.665-1.033C107.779,50.009,108.406,50.835,108.406,51.975
		 M107.054,49.312c-0.696,0-1.185,0.14-1.804,0.866v-0.716h-0.721v8.172h0.721v-3.039c0.325,0.287,0.735,0.412,1.329,0.412
		c1.478,0,2.594-1.309,2.594-3.043C109.173,50.402,108.301,49.312,107.054,49.312"/>
	<path clip-path="url(#XMLID_13_)" fill="#00305E" d="M97.07,54.077c-0.25,0.188-0.401,0.302-0.604,0.302
		c-0.28,0-0.416-0.147-0.416-0.448v-3.863h1.238v-0.605h-1.238v-1.527h-0.72v1.512l-0.88,0.231v0.39h0.88v3.805
		c0,0.805,0.314,1.147,1.053,1.147c0.374,0,0.759-0.168,1.087-0.474l0.052-0.049l-0.344-0.501L97.07,54.077z"/>
	<path clip-path="url(#XMLID_13_)" fill="#00305E" d="M102.022,52.918c-0.805,1.019-1.36,1.416-1.979,1.416
		c-0.702,0-0.807-0.709-0.807-1.132v-3.74h-0.721v3.96c0,0.992,0.533,1.586,1.425,1.586c0.966,0,1.581-0.544,2.081-1.179v1.04h0.721
		v-5.407h-0.721V52.918z"/>
	<path clip-path="url(#XMLID_13_)" fill="#00305E" d="M84.214,54.074c-0.252,0.19-0.404,0.304-0.609,0.304
		c-0.279,0-0.414-0.147-0.414-0.449v-3.862h1.238v-0.604h-1.238v-1.527H82.47v1.512l-0.879,0.232v0.388h0.879v3.805
		c0,0.806,0.316,1.147,1.055,1.147c0.371,0,0.757-0.168,1.085-0.473l0.054-0.049l-0.345-0.501L84.214,54.074z"/>
	<path clip-path="url(#XMLID_13_)" fill="#00305E" d="M88.51,52.314v1.22c-0.574,0.509-1.048,0.846-1.492,0.846
		c-0.656,0-0.727-0.509-0.727-0.728c0-0.352,0.062-0.56,0.244-0.806L88.51,52.314z M89.218,54.034v-3.401
		c0-0.869-0.546-1.31-1.621-1.31c-1.195,0-1.853,0.411-1.853,1.158c0,0.073,0,0.119,0.029,0.193l0.023,0.058l0.715-0.072v-0.075
		c0-0.024-0.004-0.046-0.008-0.063c-0.002-0.011-0.004-0.021-0.004-0.029c0-0.353,0.542-0.542,1.052-0.542
		c0.357,0,0.959,0.095,0.959,0.729v1.01l-1.813,0.448c-0.746,0.188-1.174,0.733-1.174,1.492c0,0.838,0.519,1.378,1.321,1.378
		c0.734,0,1.227-0.304,1.707-0.77c0.09,0.608,0.361,0.702,0.944,0.77l0.066,0.006l0.197-0.54l-0.104-0.012
		C89.357,54.426,89.218,54.289,89.218,54.034"/>
	<path clip-path="url(#XMLID_13_)" fill="#00305E" d="M93.254,49.358c-0.466,0-1.014,0.461-1.443,1.197v-1.093H91.09v5.406h0.721
		v-3.242c0.41-0.735,0.883-1.513,1.315-1.513c0.09,0,0.178,0.035,0.274,0.109l0.076,0.06l0.352-0.629l-0.034-0.044
		C93.652,49.425,93.422,49.358,93.254,49.358"/>
	<path clip-path="url(#XMLID_13_)" fill="#00305E" d="M78.802,47.684c0.622,0,1.145,0.155,1.75,0.521l0.076,0.045l0.366-0.691
		l-0.067-0.041c-0.698-0.421-1.252-0.577-2.044-0.577c-1.507,0-2.443,0.75-2.443,1.957c0,0.81,0.513,1.474,1.615,2.086
		c0.12,0.067,0.248,0.136,0.381,0.204c0.773,0.405,1.648,0.864,1.648,1.783c0,0.806-0.575,1.307-1.502,1.307
		c-0.767,0-1.219-0.216-1.885-0.669l-0.072-0.049l-0.411,0.662l0.065,0.045c0.657,0.452,1.289,0.754,2.233,0.754
		c1.5,0,2.432-0.819,2.432-2.142c0-1.215-0.951-1.734-1.79-2.191c-1.526-0.844-1.855-1.164-1.855-1.802
		C77.299,48.166,77.903,47.684,78.802,47.684"/>
</g>
<rect x="133.98" y="49.462" fill="#00305E" width="0.72" height="5.406"/>
<g>
	<defs>
		<rect id="XMLID_7_" x="0" width="201.259" height="68.579"/>
	</defs>
	<clipPath id="XMLID_14_">
		<use xlink:href="#XMLID_7_" />
	</clipPath>
	<path clip-path="url(#XMLID_14_)" fill="#00305E" d="M138.738,49.997c0.422,0,0.908,0.155,1.21,0.388l0.071,0.055l0.406-0.615
		l-0.065-0.047c-0.466-0.335-1.126-0.454-1.588-0.454c-1.567,0-2.662,1.195-2.662,2.906c0,1.669,1.047,2.789,2.604,2.789
		c0.563,0,1.127-0.167,1.63-0.484l0.069-0.044l-0.368-0.598l-0.072,0.052c-0.396,0.288-0.724,0.401-1.166,0.401
		c-1.173,0-1.93-0.85-1.93-2.162C136.878,50.896,137.643,49.997,138.738,49.997"/>
	<path clip-path="url(#XMLID_14_)" fill="#00305E" d="M134.342,47.183c-0.27,0-0.488,0.234-0.488,0.522
		c0,0.289,0.219,0.522,0.488,0.522c0.269,0,0.487-0.233,0.487-0.522C134.829,47.417,134.61,47.183,134.342,47.183"/>
	<path clip-path="url(#XMLID_14_)" fill="#00305E" d="M141.787,51.383c0.249-0.955,0.749-1.42,1.525-1.42
		c0.717,0,1.205,0.568,1.236,1.42H141.787z M145.315,52.011v-0.464c0-1.33-0.781-2.224-1.945-2.224c-1.44,0-2.407,1.097-2.407,2.731
		c0,1.855,0.887,2.964,2.373,2.964c0.673,0,1.191-0.162,1.849-0.578l0.062-0.039l-0.28-0.595l-0.08,0.057
		c-0.472,0.323-0.918,0.481-1.365,0.481c-1.139,0-1.792-0.8-1.792-2.197v-0.137H145.315z"/>
</g>
<polygon fill="#00305E" points="130.565,54.023 129.082,49.519 129.063,49.462 128.273,49.462 130.174,54.963 130.192,55.02 
	130.877,55.02 132.818,49.573 132.857,49.462 132.078,49.462 "/>
<g>
	<defs>
		<rect id="XMLID_9_" x="0" width="201.259" height="68.579"/>
	</defs>
	<clipPath id="XMLID_15_">
		<use xlink:href="#XMLID_9_" />
	</clipPath>
	<path clip-path="url(#XMLID_15_)" fill="#00305E" d="M115.859,47.684c0.621,0,1.146,0.155,1.75,0.521l0.075,0.045l0.367-0.691
		l-0.067-0.041c-0.698-0.421-1.252-0.577-2.044-0.577c-1.507,0-2.443,0.75-2.443,1.957c0,0.81,0.514,1.474,1.615,2.086
		c0.12,0.067,0.249,0.136,0.382,0.204c0.772,0.405,1.648,0.864,1.648,1.783c0,0.806-0.577,1.307-1.504,1.307
		c-0.767,0-1.218-0.216-1.884-0.669l-0.073-0.049l-0.41,0.662l0.064,0.045c0.657,0.452,1.289,0.754,2.234,0.754
		c1.499,0,2.431-0.819,2.431-2.142c0-1.215-0.95-1.733-1.788-2.191c-1.526-0.844-1.856-1.163-1.856-1.802
		C114.356,48.166,114.96,47.684,115.859,47.684"/>
	<path clip-path="url(#XMLID_15_)" fill="#00305E" d="M119.986,51.384c0.249-0.956,0.749-1.421,1.526-1.421
		c0.717,0,1.205,0.567,1.235,1.421H119.986z M121.571,49.323c-1.44,0-2.409,1.098-2.409,2.731c0,1.856,0.887,2.964,2.374,2.964
		c0.674,0,1.192-0.162,1.85-0.578l0.062-0.039l-0.281-0.595l-0.081,0.056c-0.47,0.324-0.916,0.482-1.363,0.482
		c-1.14,0-1.793-0.8-1.793-2.197v-0.136h3.588v-0.465C123.517,50.218,122.734,49.323,121.571,49.323"/>
	<path clip-path="url(#XMLID_15_)" fill="#00305E" d="M127.075,49.358c-0.467,0-1.014,0.461-1.444,1.197v-1.093h-0.72v5.406h0.72
		v-3.242c0.41-0.735,0.883-1.513,1.317-1.513c0.089,0,0.176,0.035,0.273,0.109l0.076,0.06l0.351-0.629l-0.033-0.044
		C127.474,49.425,127.243,49.358,127.075,49.358"/>
</g>
</svg>
