<?xml version="1.0" encoding="UTF-8" standalone="no"?><!DOCTYPE svg PUBLIC "-//W3C//DTD SVG 1.1//EN" "http://www.w3.org/Graphics/SVG/1.1/DTD/svg11.dtd"><svg width="100%" height="100%" viewBox="0 0 2827 3055" version="1.1" xmlns="http://www.w3.org/2000/svg" xmlns:xlink="http://www.w3.org/1999/xlink" xml:space="preserve" xmlns:serif="http://www.serif.com/" style="fill-rule:evenodd;clip-rule:evenodd;stroke-linejoin:round;stroke-miterlimit:2;"><rect x="2334.92" y="2806.79" width="209.167" height="247.375" style="fill:url(#_Linear1);"/><rect x="2339.79" y="2806.75" width="199.458" height="238.375" style="fill:#f5f5f5;"/><rect x="287" y="2806.79" width="209.167" height="247.375" style="fill:url(#_Linear2);"/><rect x="291.875" y="2806.79" width="199.458" height="238.375" style="fill:#f5f5f5;"/><path d="M2826.25,61.917c0,-34.173 -27.744,-61.917 -61.917,-61.917l-2702.42,0c-34.173,0 -61.917,27.744 -61.917,61.917l0,2717c0,34.172 27.744,61.916 61.917,61.916l2702.42,0c34.173,0 61.917,-27.744 61.917,-61.916l0,-2717Z" style="fill:url(#_Linear3);"/><path d="M2811.62,76.5c0,-34.173 -27.744,-61.917 -61.917,-61.917l-2668.33,0c-34.173,0 -61.917,27.744 -61.917,61.917l0,2668.33c0,34.173 27.744,61.917 61.917,61.917l2668.33,0c34.173,0 61.917,-27.744 61.917,-61.917l0,-2668.33Z" style="fill:#fafafa;"/><rect x="469.417" y="464.542" width="1887.42" height="1906.88" style="fill:url(#_Linear4);"/><rect x="484" y="484" width="1858.21" height="1858.21" style="fill:#fff;"/><circle cx="1413.12" cy="1413.12" r="350.25" style="fill:url(#_Linear5);"/><circle cx="1413.12" cy="1413.12" r="335.667" style="fill:#fafafa;"/><rect x="1157.75" y="2081.96" width="102.167" height="107" style="fill:url(#_Linear6);"/><rect x="1293.96" y="2081.96" width="102.167" height="107" style="fill:url(#_Linear7);"/><rect x="1430.12" y="2081.96" width="102.167" height="107" style="fill:url(#_Linear8);"/><rect x="1566.33" y="2081.96" width="102.167" height="107" style="fill:url(#_Linear9);"/><rect x="1160.17" y="2086.83" width="97.292" height="97.292" style="fill:#2196f3;"/><rect x="1296.38" y="2086.83" width="97.292" height="97.292" style="fill:#2196f3;fill-opacity:0.7;"/><rect x="1432.58" y="2086.83" width="97.292" height="97.292" style="fill:#2196f3;fill-opacity:0.5;"/><rect x="1568.79" y="2086.83" width="97.292" height="97.292" style="fill:#2196f3;fill-opacity:0.3;"/><path d="M1569.57,1210.9l-15.939,-11.161l-39.051,55.77l15.939,11.161l39.051,-55.77Z" style="fill:#2196f3;"/><path d="M1615.35,1569.55l11.16,-15.939l-55.77,-39.051l-11.161,15.939l55.771,39.051Z" style="fill:#2196f3;"/><path d="M1256.66,1615.33l15.94,11.161l39.051,-55.771l-15.94,-11.161l-39.051,55.771Z" style="fill:#2196f3;"/><path d="M1210.92,1256.68l-11.16,15.94l55.77,39.051l11.161,-15.94l-55.771,-39.051Z" style="fill:#2196f3;"/><path d="M1569.39,1210.32l-15.939,-11.161l-39.051,55.771l15.939,11.161l39.051,-55.771Z" style="fill-opacity:0.2;"/><path d="M1615.19,1568.99l11.161,-15.939l-55.771,-39.051l-11.161,15.939l55.771,39.051Z" style="fill-opacity:0.2;"/><path d="M1256.53,1614.75l15.939,11.161l39.051,-55.771l-15.939,-11.16l-39.051,55.77Z" style="fill-opacity:0.2;"/><path d="M1210.76,1256.11l-11.161,15.94l55.77,39.051l11.161,-15.94l-55.77,-39.051Z" style="fill-opacity:0.2;"/><circle cx="1413.12" cy="1413.12" r="211.583" style="fill:url(#_Linear10);"/><circle cx="1413.12" cy="1413.12" r="199.458" style="fill:#2196f3;"/><path d="M1250.17,1439.88c0,-0.074 0,-0.147 0,-0.221c0,-109.397 90.019,-199.416 199.416,-199.416c34.807,0 69.015,9.112 99.209,26.429c-37.142,-35.745 -86.733,-55.732 -138.281,-55.732c-109.397,0 -199.416,90.02 -199.416,199.417c0,71.357 38.299,137.478 100.197,172.981c-39.047,-37.483 -61.139,-89.333 -61.125,-143.458Z" style="fill:#fff;fill-opacity:0.2;fill-rule:nonzero;"/><path d="M564.292,1235.58l-155.667,0l0,-388.666c0.023,-8.282 6.843,-15.084 15.125,-15.084l125.458,0c8.298,0 15.125,6.828 15.125,15.125l-0.041,388.625Z" style="fill:url(#_Linear11);fill-rule:nonzero;"/><path d="M548.417,1999.29l-123.917,0c-8.709,0 -15.875,-7.167 -15.875,-15.875l0,-387.875l155.667,0l0,387.791c0,0.028 0,0.056 0,0.084c0,8.708 -7.166,15.875 -15.875,15.875Z" style="fill:url(#_Linear12);fill-rule:nonzero;"/><path d="M426.667,836.667l119.541,0c7.246,0 13.209,5.962 13.209,13.208l0,375.958l-145.834,0l0,-375.833c0,-0.042 0,-0.084 0,-0.126c0,-7.198 5.885,-13.14 13.084,-13.207Z" style="fill:#fafafa;fill-rule:nonzero;"/><path d="M413.5,1600.42l145.792,0l0,384.708c0,2.423 -1.994,4.417 -4.417,4.417l-136.958,0c-2.423,0 -4.417,-1.994 -4.417,-4.417l0,-384.708Z" style="fill:#fafafa;fill-rule:nonzero;"/><defs><linearGradient id="_Linear1" x1="0" y1="0" x2="1" y2="0" gradientUnits="userSpaceOnUse" gradientTransform="matrix(1.51474e-14,-247.375,247.375,1.51474e-14,2439.5,3054.17)"><stop offset="0" style="stop-color:#808080;stop-opacity:0.25"/><stop offset="0.54" style="stop-color:#808080;stop-opacity:0.12"/><stop offset="1" style="stop-color:#808080;stop-opacity:0.1"/></linearGradient><linearGradient id="_Linear2" x1="0" y1="0" x2="1" y2="0" gradientUnits="userSpaceOnUse" gradientTransform="matrix(1.71866e-13,2806.79,-2806.79,1.71866e-13,391.583,0)"><stop offset="0" style="stop-color:#808080;stop-opacity:0.25"/><stop offset="0.54" style="stop-color:#808080;stop-opacity:0.12"/><stop offset="1" style="stop-color:#808080;stop-opacity:0.1"/></linearGradient><linearGradient id="_Linear3" x1="0" y1="0" x2="1" y2="0" gradientUnits="userSpaceOnUse" gradientTransform="matrix(1.73951e-13,-2840.83,2840.83,1.73951e-13,1413.12,2840.83)"><stop offset="0" style="stop-color:#808080;stop-opacity:0.25"/><stop offset="0.54" style="stop-color:#808080;stop-opacity:0.12"/><stop offset="1" style="stop-color:#808080;stop-opacity:0.1"/></linearGradient><linearGradient id="_Linear4" x1="0" y1="0" x2="1" y2="0" gradientUnits="userSpaceOnUse" gradientTransform="matrix(1.16762e-13,-1906.88,1906.88,1.16762e-13,1413.12,2371.42)"><stop offset="0" style="stop-color:#808080;stop-opacity:0.25"/><stop offset="0.54" style="stop-color:#808080;stop-opacity:0.12"/><stop offset="1" style="stop-color:#808080;stop-opacity:0.1"/></linearGradient><linearGradient id="_Linear5" x1="0" y1="0" x2="1" y2="0" gradientUnits="userSpaceOnUse" gradientTransform="matrix(4.28933e-14,-700.5,700.5,4.28933e-14,1413.12,1763.38)"><stop offset="0" style="stop-color:#808080;stop-opacity:0.25"/><stop offset="0.54" style="stop-color:#808080;stop-opacity:0.12"/><stop offset="1" style="stop-color:#808080;stop-opacity:0.1"/></linearGradient><linearGradient id="_Linear6" x1="0" y1="0" x2="1" y2="0" gradientUnits="userSpaceOnUse" gradientTransform="matrix(6.55441e-15,-107.042,107.042,6.55441e-15,1208.79,2189)"><stop offset="0" style="stop-color:#808080;stop-opacity:0.25"/><stop offset="0.54" style="stop-color:#808080;stop-opacity:0.12"/><stop offset="1" style="stop-color:#808080;stop-opacity:0.1"/></linearGradient><linearGradient id="_Linear7" x1="0" y1="0" x2="1" y2="0" gradientUnits="userSpaceOnUse" gradientTransform="matrix(6.55441e-15,-107.042,107.042,6.55441e-15,1345,2189)"><stop offset="0" style="stop-color:#808080;stop-opacity:0.25"/><stop offset="0.54" style="stop-color:#808080;stop-opacity:0.12"/><stop offset="1" style="stop-color:#808080;stop-opacity:0.1"/></linearGradient><linearGradient id="_Linear8" x1="0" y1="0" x2="1" y2="0" gradientUnits="userSpaceOnUse" gradientTransform="matrix(6.55441e-15,-107.042,107.042,6.55441e-15,1481.21,2189)"><stop offset="0" style="stop-color:#808080;stop-opacity:0.25"/><stop offset="0.54" style="stop-color:#808080;stop-opacity:0.12"/><stop offset="1" style="stop-color:#808080;stop-opacity:0.1"/></linearGradient><linearGradient id="_Linear9" x1="0" y1="0" x2="1" y2="0" gradientUnits="userSpaceOnUse" gradientTransform="matrix(6.55441e-15,-107.042,107.042,6.55441e-15,1617.42,2189)"><stop offset="0" style="stop-color:#808080;stop-opacity:0.25"/><stop offset="0.54" style="stop-color:#808080;stop-opacity:0.12"/><stop offset="1" style="stop-color:#808080;stop-opacity:0.1"/></linearGradient><linearGradient id="_Linear10" x1="0" y1="0" x2="1" y2="0" gradientUnits="userSpaceOnUse" gradientTransform="matrix(2.5914e-14,-423.208,423.208,2.5914e-14,1413.12,1624.71)"><stop offset="0" style="stop-color:#808080;stop-opacity:0.25"/><stop offset="0.54" style="stop-color:#808080;stop-opacity:0.12"/><stop offset="1" style="stop-color:#808080;stop-opacity:0.1"/></linearGradient><linearGradient id="_Linear11" x1="0" y1="0" x2="1" y2="0" gradientUnits="userSpaceOnUse" gradientTransform="matrix(2.47226e-14,-403.75,403.75,2.47226e-14,486.458,1235.58)"><stop offset="0" style="stop-color:#808080;stop-opacity:0.25"/><stop offset="0.54" style="stop-color:#808080;stop-opacity:0.12"/><stop offset="1" style="stop-color:#808080;stop-opacity:0.1"/></linearGradient><linearGradient id="_Linear12" x1="0" y1="0" x2="1" y2="0" gradientUnits="userSpaceOnUse" gradientTransform="matrix(2.47226e-14,-403.75,403.75,2.47226e-14,486.458,1999.29)"><stop offset="0" style="stop-color:#808080;stop-opacity:0.25"/><stop offset="0.54" style="stop-color:#808080;stop-opacity:0.12"/><stop offset="1" style="stop-color:#808080;stop-opacity:0.1"/></linearGradient></defs></svg>