<svg xmlns="http://www.w3.org/2000/svg" width="234.99" height="817.35" viewBox="0 0 234.99 817.35"><g id="ece6e612-afb2-4c58-8da6-fddb2d0c575f" data-name="Ebene 2"><g id="e7cbef67-9c25-4282-9f5e-f1f0d8af99e1" data-name="Ebene 9"><polygon points="143.75 182.3 234.99 473.79 180.35 478.5 122.04 204.96 143.75 182.3" style="fill:#154f77"/><path d="M49.88,469.22s49.33,5.72,80.22,5.09l69-1.39,12,338.46-62.58,2.3L129.27,586.19l1.24,229.91-61.94,1.25Z" style="fill:#154f77"/><path d="M66.19,162.26S61.41,194,58.57,232c-1.59,21.38-8.08,32.84-14.13,70.81C41.82,319.22,46.86,478.08,46.86,491c0,3,157-4,157-4s-51.45-168.95-36-205c18-42-18.19-52.65-22-83-3.61-28.7-10.39-19.51-10.39-19.51l-56.23-.81" style="fill:#0b3851"/><path d="M82.48,270.76S109.86,348,136.86,359s38.63,18.59,38.63,18.59l9.1,39.15S122.86,426,106.86,403s-41-87-41-87Z" style="fill:#2a76a0"/><ellipse cx="60.21" cy="60.33" rx="33.81" ry="32.75" transform="translate(-11.16 13.74) rotate(-11.92)" style="fill:#073751"/><ellipse cx="38.6" cy="85.59" rx="11.84" ry="10.06" transform="translate(-54.35 98.91) rotate(-73.88)" style="fill:#073751"/><ellipse cx="37.52" cy="105.11" rx="9.56" ry="8.12" transform="translate(-73.88 111.97) rotate(-73.88)" style="fill:#073751"/><ellipse cx="39.01" cy="119.67" rx="9.56" ry="8.12" transform="translate(-86.79 123.92) rotate(-73.88)" style="fill:#073751"/><ellipse cx="44.01" cy="130.96" rx="7" ry="5.95" transform="matrix(0.28, -0.96, 0.96, 0.28, -94.03, 136.88)" style="fill:#073751"/><ellipse cx="38.95" cy="139" rx="3.18" ry="2.7" transform="translate(-105.4 137.82) rotate(-73.88)" style="fill:#073751"/><polygon points="66.32 162.15 0 480.42 57.99 482.16 87.83 224.53 66.32 162.15" style="fill:#154f77"/><path d="M110.8,199.48C69.45,199.2,40.46,118,39,96.58c-3.62-53.13,30.51-84.15,64.17-84.15,54.44,0,81.93,19.34,82.65,64.65C186.39,112.66,156.09,199.8,110.8,199.48Z" style="fill:#57b3f2"/><ellipse cx="82.48" cy="96.99" rx="23.38" ry="17.46" style="fill:#f7f5fa"/><ellipse cx="135.23" cy="96.59" rx="23.38" ry="17.46" style="fill:#f7f5fa"/><ellipse cx="85.2" cy="97.25" rx="5.44" ry="4.82" style="fill:#0f405b"/><ellipse cx="136.31" cy="98.22" rx="5.44" ry="4.82" style="fill:#0f405b"/><line x1="65.55" y1="84.55" x2="59.87" y2="78.38" style="fill:none;stroke:#0f405b;stroke-miterlimit:10;stroke-width:1.0564730843557px"/><line x1="73.42" y1="80.85" x2="69.79" y2="73.43" style="fill:none;stroke:#0f405b;stroke-miterlimit:10;stroke-width:1.0564730843557px"/><line x1="81.05" y1="79.11" x2="79.55" y2="71.06" style="fill:none;stroke:#0f405b;stroke-miterlimit:10;stroke-width:1.0564730843557px"/><line x1="137.07" y1="78.73" x2="137.98" y2="70.6" style="fill:none;stroke:#0f405b;stroke-miterlimit:10;stroke-width:1.0564730843557px"/><line x1="145.36" y1="80.18" x2="148.64" y2="72.61" style="fill:none;stroke:#0f405b;stroke-miterlimit:10;stroke-width:1.0564730843557px"/><line x1="151.92" y1="84.26" x2="157.13" y2="77.73" style="fill:none;stroke:#0f405b;stroke-miterlimit:10;stroke-width:1.0564730843557px"/><polyline points="109.69 103.76 111.49 129.74 117.47 134.44 105.51 138.68" style="fill:none;stroke:#2a76a0;stroke-miterlimit:10;stroke-width:3.92843515155232px"/><path d="M47,74.56s37.39-36.82,68.84-34.89S152.11,33,152.11,33V55.53s19.19-5.26,20.12,5.35,13,23.14,13,23.14,3.91-35.68-14.73-53.29C153.88,15.08,141.67,1.84,110.24.14,79.58-1.52,57,12.25,42.7,27.13c-8.81,9.16-4.79,54.05-4.79,54.05Z" style="fill:#073751"/><path d="M97.73,157.12s6.52,7.19,14.14,7.19,13-7.19,13-7.19" style="fill:none;stroke:#2a76a0;stroke-miterlimit:10;stroke-width:3.92843515155232px"/></g></g></svg>