<?xml version="1.0" encoding="UTF-8" standalone="no"?><!DOCTYPE svg PUBLIC "-//W3C//DTD SVG 1.1//EN" "http://www.w3.org/Graphics/SVG/1.1/DTD/svg11.dtd"><svg width="100%" height="100%" viewBox="0 0 3498 849" version="1.1" xmlns="http://www.w3.org/2000/svg" xmlns:xlink="http://www.w3.org/1999/xlink" xml:space="preserve" xmlns:serif="http://www.serif.com/" style="fill-rule:evenodd;clip-rule:evenodd;stroke-linejoin:round;stroke-miterlimit:1.41421;"><rect id="Logo-Mit-Schrift--Horizontal-" serif:id="Logo Mit Schrift (Horizontal)" x="0" y="0" width="3498" height="849" style="fill:none;"/><clipPath id="_clip1"><rect x="0" y="0" width="3498" height="849"/></clipPath><g clip-path="url(#_clip1)"><g><path d="M89.327,795.757c0,0 -73.646,36.177 -83.121,32.732c-27.994,-11.198 47.375,-42.207 54.696,-42.638c7.322,-0.43 40.054,-5.598 28.425,9.906Z" style="fill:#ef7835;fill-rule:nonzero;"/><path d="M58.749,747.09l-1.292,0c-0.862,-0.431 0,-0.431 1.292,0Z" style="fill:#ef7835;fill-rule:nonzero;"/><path d="M1169.48,570.511c-7.752,-9.044 -6.891,-25.41 -5.168,-35.747c6.46,4.307 13.782,8.183 23.687,14.213c20.242,12.49 87.859,18.088 76.662,33.593c-11.198,15.504 -108.101,35.316 -108.101,35.316c-17.228,-16.366 12.92,-47.375 12.92,-47.375Z" style="fill:#ef7835;fill-rule:nonzero;"/><path d="M315.609,589.444c-21.692,-1.524 -19.555,-33.146 -19.555,-33.146c-42.637,24.119 -35.746,-17.657 -35.746,-17.657c-13.782,0 -19.381,-24.549 -19.381,-24.549c-22.395,-4.738 -16.797,-25.841 -16.797,-25.841c-35.746,-15.935 -21.103,-40.054 -21.103,-40.054c-21.534,-15.504 -4.307,-40.053 -4.307,-40.053c-36.608,9.475 -13.351,-43.499 -13.351,-43.499c-3.445,-2.153 -6.46,-3.445 -9.475,-5.168c-51.681,-31.009 -33.593,-47.805 -33.593,-47.805c-55.127,-35.316 -31.009,-47.806 -31.009,-47.806c-36.177,-34.885 -16.366,-37.039 -16.366,-37.039c-47.806,-41.776 -7.322,-38.33 -7.322,-38.33c-10.336,-5.599 -21.103,-21.965 -18.519,-28.425c2.584,-6.891 18.95,8.183 30.579,9.475c11.628,1.292 7.321,-4.738 7.321,-4.738c-38.33,-35.315 -31.009,-43.068 -33.162,-55.127c-2.154,-12.059 46.944,20.242 44.36,15.935c-2.584,-4.306 -27.994,-48.236 -25.841,-60.726c2.584,-12.489 40.915,27.564 40.915,27.564c0,0 18.088,18.089 10.336,-4.737c-7.752,-22.827 -19.811,-46.945 -18.089,-65.895c1.292,-18.95 47.806,58.573 47.806,58.573c0,0 19.381,15.935 7.752,-6.03c-11.628,-22.395 -22.826,-52.973 -16.366,-65.894c6.461,-12.92 39.623,58.142 39.623,58.142c-5.599,-23.257 -16.366,-52.974 -7.322,-65.463c9.045,-12.49 37.9,80.537 39.623,93.457c2.154,12.921 60.295,95.181 66.325,104.225c6.03,9.045 67.186,59.434 67.186,59.434c22.806,28.413 85.853,67.536 102.092,77.365c2.469,1.494 3.856,2.311 3.856,2.311c11.44,-10.185 12.487,98.639 -17.555,201.983c-30.071,103.443 -92.282,212.015 -81.933,220.515c-14.643,0.862 -42.637,9.906 -56.849,21.104c-36.178,-12.921 -49.529,6.89 -76.231,14.212c-34.454,9.044 -57.711,4.307 -65.894,9.475c-8.614,5.599 -20.242,-4.737 -30.148,-2.153c-14.212,3.014 -21.534,2.153 -30.578,2.153c-46.944,0.431 -52.543,-8.183 -52.543,-8.183c-29.714,-6.89 -21.105,-22.392 -17.658,-22.395c3.445,0 34.454,-12.921 37.469,-16.366c2.584,-3.015 -19.381,-9.906 -25.41,-11.198c6.46,0 30.148,-3.876 35.746,-5.168c6.461,-1.723 -9.905,-13.782 -9.905,-13.782c5.599,0.862 33.162,-3.445 35.746,-4.307c2.584,-0.861 -10.767,-13.351 -10.767,-13.351c0,0 34.024,3.015 36.608,1.292c2.584,-1.722 0,-6.46 0,-6.46c3.876,1.723 43.068,3.445 43.068,3.445c3.446,-3.876 47.806,-37.469 65.464,-37.469c17.658,0 80.968,-40.053 80.968,-40.053c-31.009,2.153 -20.673,-7.752 -20.673,-7.752c0,0 34.455,-39.192 6.46,-34.455c-2.153,0.431 -5.855,0.414 -5.855,0.414Z" style="fill:url(#_Linear2);"/><path d="M795.644,416.327c-42.627,51.449 -59.902,113.557 -45.12,123.599c51.783,35.179 213.051,-5.685 210.873,-8.847c34.7,-12.418 73.047,-11.723 74.998,-11.388c74.119,-40.634 112.899,-3.524 115.516,5.336c0,0 6.63,6.539 12.396,9.737c-2.288,4.706 0.602,34.424 5.168,35.747c-9.591,8.987 -23.631,39.09 -12.92,47.375c-125.539,39.896 -165.178,32.968 -215.763,31.016c-67.518,13.644 -134.827,40.719 -201.998,76.654c-37.052,2.128 -73.135,4.049 -100.284,11.732c11.519,17.958 -294.972,97.226 -262.687,0c-3.897,-28.107 45.908,-92.608 69.488,-162.686c30.137,-89.567 36.367,-184.546 36.367,-184.546l-5.599,-52.113c-6.468,-11.981 21.06,-13.855 32.731,-10.336c-14.94,-28.968 -2.414,-41.236 37.9,-36.608c-6.83,-12.872 -14.708,-38.54 15.936,-37.039c-6.084,-27.684 6.922,-34.822 46.513,-13.351c-26.077,-66.866 26.302,-44.315 39.393,-23.912c-21.268,-80.997 -7.136,-105.692 37.699,-80.313c-4.147,-37.83 5.784,-53.104 43.068,-24.548c0.508,-25.228 11.614,-32.039 39.623,-9.475c11.921,-20.436 20.095,-15.52 26.702,0l10.336,222.662c9.644,16.224 20.092,77.076 -10.336,91.304Z" style="fill:url(#_Linear3);fill-rule:nonzero;"/><path d="M526.468,774.223c128.343,-25.841 78.815,-36.608 147.293,-43.499c28.856,-3.015 50.821,-5.168 65.033,-5.168c-92.596,54.266 -183.47,93.027 -274.344,90.874c-48.667,-0.862 -101.21,-23.257 -142.124,-38.331c14.212,-11.198 38.761,-18.95 53.404,-20.242c-0.431,0.861 22.395,42.207 150.738,16.366Z" style="fill:#fdfdfd;fill-rule:nonzero;"/><path d="M375.299,758.718c0,0 -74.077,23.688 -99.056,52.974c-2.584,3.015 -6.891,5.168 -10.767,5.168c-22.396,0.862 -101.21,3.015 -148.585,29.287c-7.322,4.307 -15.935,5.599 -24.118,3.445c-13.351,-3.015 -25.411,-11.198 7.321,-31.44c33.163,-20.242 117.145,-29.286 141.264,-31.439c4.306,-0.431 8.613,-1.723 12.059,-3.876c18.088,-10.767 73.646,-43.499 99.056,-46.083c28.856,-2.584 22.826,21.964 22.826,21.964Z" style="fill:#ef7835;fill-rule:nonzero;"/><path d="M1119.97,531.659c-5.932,1.735 -9.664,6.848 -8.329,11.411c1.335,4.563 7.235,6.859 13.166,5.123c5.932,-1.735 9.664,-6.848 8.329,-11.411c-1.335,-4.563 -7.234,-6.859 -13.166,-5.123Z"/></g><text x="1259.53px" y="839.089px" style="font-family:'Roboto-Regular', 'Roboto';font-size:1180.26px;fill:#fff;">E<tspan x="1901.77px 2525.26px 2894.38px " y="839.089px 839.089px 839.089px ">ntE</tspan></text></g><defs><linearGradient id="_Linear2" x1="0" y1="0" x2="1" y2="0" gradientUnits="userSpaceOnUse" gradientTransform="matrix(440.66,0,0,806.921,42.8357,403.46)"><stop offset="0" style="stop-color:#f07d3c;stop-opacity:1"/><stop offset="1" style="stop-color:#fff;stop-opacity:1"/></linearGradient><linearGradient id="_Linear3" x1="0" y1="0" x2="1" y2="0" gradientUnits="userSpaceOnUse" gradientTransform="matrix(-796.036,0,0,696.111,1169.48,436.718)"><stop offset="0" style="stop-color:#fff;stop-opacity:1"/><stop offset="1" style="stop-color:#ef7835;stop-opacity:1"/></linearGradient></defs></svg>